SlimJim-Regular.ufo
<glyph name="quotedbl" format="1">
  <advance width="331"/>
  <unicode hex="0022"/>
  <outline>
    <contour>
      <point x="24" y="728" type="line" smooth="yes"/>
      <point x="22" y="728"/>
      <point x="20" y="727"/>
      <point x="20" y="725" type="curve" smooth="yes"/>
      <point x="20" y="571" type="line" smooth="yes"/>
      <point x="20" y="569"/>
      <point x="22" y="567"/>
      <point x="24" y="567" type="curve" smooth="yes"/>
      <point x="126" y="567" type="line" smooth="yes"/>
      <point x="128" y="567"/>
      <point x="129" y="569"/>
      <point x="130" y="571" type="curve"/>
      <point x="130" y="725" type="line"/>
      <point x="129" y="727"/>
      <point x="128" y="728"/>
      <point x="126" y="728" type="curve" smooth="yes"/>
    </contour>
    <contour>
      <point x="205" y="728" type="line" smooth="yes"/>
      <point x="203" y="728"/>
      <point x="201" y="727"/>
      <point x="201" y="725" type="curve" smooth="yes"/>
      <point x="201" y="571" type="line" smooth="yes"/>
      <point x="201" y="569"/>
      <point x="203" y="567"/>
      <point x="205" y="567" type="curve" smooth="yes"/>
      <point x="307" y="567" type="line" smooth="yes"/>
      <point x="309" y="567"/>
      <point x="310" y="569"/>
      <point x="311" y="571" type="curve"/>
      <point x="311" y="725" type="line"/>
      <point x="310" y="727"/>
      <point x="309" y="728"/>
      <point x="307" y="728" type="curve" smooth="yes"/>
    </contour>
  </outline>
</glyph>
<glyph name="numbersign" format="1">
  <advance width="542"/>
  <unicode hex="0023"/>
  <outline>
    <contour>
      <point x="171" y="1" type="line" smooth="yes"/>
      <point x="173" y="1"/>
      <point x="175" y="3"/>
      <point x="176" y="6" type="curve" smooth="yes"/>
      <point x="195" y="201" type="line"/>
      <point x="307" y="201" type="line"/>
      <point x="288" y="6" type="line"/>
      <point x="288" y="3"/>
      <point x="289" y="1"/>
      <point x="291" y="1" type="curve" smooth="yes"/>
      <point x="361" y="1" type="line" smooth="yes"/>
      <point x="363" y="1"/>
      <point x="365" y="3"/>
      <point x="366" y="6" type="curve" smooth="yes"/>
      <point x="385" y="201" type="line"/>
      <point x="475" y="201" type="line"/>
      <point x="478" y="202"/>
      <point x="479" y="204"/>
      <point x="479" y="207" type="curve" smooth="yes"/>
      <point x="487" y="282" type="line" smooth="yes"/>
      <point x="487" y="285"/>
      <point x="486" y="288"/>
      <point x="484" y="288" type="curve" smooth="yes"/>
      <point x="394" y="288" type="line"/>
      <point x="410" y="427" type="line"/>
      <point x="500" y="427" type="line"/>
      <point x="503" y="428"/>
      <point x="504" y="430"/>
      <point x="504" y="433" type="curve" smooth="yes"/>
      <point x="512" y="508" type="line" smooth="yes"/>
      <point x="512" y="511"/>
      <point x="511" y="514"/>
      <point x="509" y="514" type="curve" smooth="yes"/>
      <point x="419" y="514" type="line"/>
      <point x="436" y="695" type="line" smooth="yes"/>
      <point x="436" y="698"/>
      <point x="435" y="701"/>
      <point x="433" y="701" type="curve" smooth="yes"/>
      <point x="363" y="701" type="line" smooth="yes"/>
      <point x="361" y="701"/>
      <point x="359" y="698"/>
      <point x="358" y="695" type="curve"/>
      <point x="341" y="514" type="line"/>
      <point x="229" y="514" type="line"/>
      <point x="246" y="695" type="line" smooth="yes"/>
      <point x="246" y="698"/>
      <point x="245" y="701"/>
      <point x="243" y="701" type="curve" smooth="yes"/>
      <point x="173" y="701" type="line" smooth="yes"/>
      <point x="171" y="701"/>
      <point x="169" y="698"/>
      <point x="168" y="695" type="curve"/>
      <point x="151" y="514" type="line"/>
      <point x="67" y="514" type="line" smooth="yes"/>
      <point x="65" y="514"/>
      <point x="63" y="511"/>
      <point x="63" y="508" type="curve" smooth="yes"/>
      <point x="55" y="433" type="line" smooth="yes"/>
      <point x="55" y="430"/>
      <point x="57" y="428"/>
      <point x="58" y="427" type="curve"/>
      <point x="142" y="427" type="line"/>
      <point x="126" y="288" type="line"/>
      <point x="42" y="288" type="line" smooth="yes"/>
      <point x="40" y="288"/>
      <point x="38" y="285"/>
      <point x="38" y="282" type="curve" smooth="yes"/>
      <point x="30" y="207" type="line" smooth="yes"/>
      <point x="30" y="204"/>
      <point x="32" y="202"/>
      <point x="33" y="201" type="curve"/>
      <point x="117" y="201" type="line"/>
      <point x="98" y="6" type="line"/>
      <point x="98" y="3"/>
      <point x="99" y="1"/>
      <point x="101" y="1" type="curve" smooth="yes"/>
    </contour>
    <contour>
      <point x="220" y="427" type="line"/>
      <point x="332" y="427" type="line"/>
      <point x="316" y="288" type="line"/>
      <point x="204" y="288" type="line"/>
    </contour>
  </outline>
</glyph>
<glyph name="percent" format="1">
  <advance width="747"/>
  <unicode hex="0025"/>
  <outline>
    <contour>
      <point x="567" y="698" type="line"/>
      <point x="567" y="701"/>
      <point x="565" y="703"/>
      <point x="561" y="703" type="curve" smooth="yes"/>
      <point x="458" y="703" type="line" smooth="yes"/>
      <point x="454" y="703"/>
      <point x="452" y="701"/>
      <point x="451" y="698" type="curve" smooth="yes"/>
      <point x="175" y="5" type="line"/>
      <point x="175" y="2"/>
      <point x="176" y="0"/>
      <point x="181" y="0" type="curve" smooth="yes"/>
      <point x="285" y="0" type="line" smooth="yes"/>
      <point x="290" y="0"/>
      <point x="290" y="2"/>
      <point x="291" y="5" type="curve" smooth="yes"/>
    </contour>
    <contour>
      <point x="640" y="60" type="line"/>
      <point x="640" y="59"/>
      <point x="640" y="57"/>
      <point x="639" y="57" type="curve"/>
      <point x="639" y="57" type="line"/>
      <point x="620" y="57" type="line"/>
      <point x="620" y="57" type="line"/>
      <point x="541" y="57" type="line"/>
      <point x="541" y="57" type="line"/>
      <point x="529" y="57" type="line"/>
      <point x="529" y="57" type="line"/>
      <point x="527" y="57"/>
      <point x="526" y="59"/>
      <point x="526" y="60" type="curve"/>
      <point x="526" y="243" type="line"/>
      <point x="526" y="243"/>
      <point x="527" y="245"/>
      <point x="529" y="245" type="curve"/>
      <point x="529" y="245" type="line"/>
      <point x="529" y="245" type="line"/>
      <point x="639" y="245" type="line"/>
      <point x="639" y="245" type="line"/>
      <point x="639" y="245" type="line"/>
      <point x="640" y="245"/>
      <point x="640" y="243"/>
      <point x="640" y="243" type="curve"/>
    </contour>
    <contour>
      <point x="521" y="302" type="line" smooth="yes"/>
      <point x="485" y="302"/>
      <point x="459" y="274"/>
      <point x="459" y="238" type="curve" smooth="yes"/>
      <point x="459" y="63" type="line" smooth="yes"/>
      <point x="459" y="28"/>
      <point x="485" y="0"/>
      <point x="521" y="0" type="curve"/>
      <point x="520" y="0" type="line"/>
      <point x="646" y="0" type="line"/>
      <point x="645" y="0" type="line"/>
      <point x="681" y="0"/>
      <point x="707" y="28"/>
      <point x="707" y="63" type="curve" smooth="yes"/>
      <point x="707" y="238" type="line" smooth="yes"/>
      <point x="707" y="274"/>
      <point x="681" y="302"/>
      <point x="645" y="302" type="curve" smooth="yes"/>
    </contour>
    <contour>
      <point x="221" y="463" type="line"/>
      <point x="221" y="461"/>
      <point x="221" y="460"/>
      <point x="220" y="460" type="curve"/>
      <point x="220" y="460" type="line"/>
      <point x="201" y="460" type="line"/>
      <point x="201" y="460" type="line"/>
      <point x="122" y="460" type="line"/>
      <point x="122" y="460" type="line"/>
      <point x="110" y="460" type="line"/>
      <point x="110" y="460" type="line"/>
      <point x="108" y="460"/>
      <point x="107" y="461"/>
      <point x="107" y="463" type="curve"/>
      <point x="107" y="646" type="line"/>
      <point x="107" y="646"/>
      <point x="108" y="647"/>
      <point x="110" y="647" type="curve"/>
      <point x="110" y="647" type="line"/>
      <point x="110" y="647" type="line"/>
      <point x="220" y="647" type="line"/>
      <point x="220" y="647" type="line"/>
      <point x="220" y="647" type="line"/>
      <point x="221" y="647"/>
      <point x="221" y="646"/>
      <point x="221" y="646" type="curve"/>
    </contour>
    <contour>
      <point x="102" y="705" type="line" smooth="yes"/>
      <point x="66" y="705"/>
      <point x="40" y="677"/>
      <point x="40" y="641" type="curve" smooth="yes"/>
      <point x="40" y="466" type="line" smooth="yes"/>
      <point x="40" y="430"/>
      <point x="66" y="403"/>
      <point x="102" y="403" type="curve"/>
      <point x="100" y="403" type="line"/>
      <point x="227" y="403" type="line"/>
      <point x="226" y="403" type="line"/>
      <point x="261" y="403"/>
      <point x="288" y="430"/>
      <point x="288" y="466" type="curve" smooth="yes"/>
      <point x="288" y="641" type="line" smooth="yes"/>
      <point x="288" y="677"/>
      <point x="261" y="705"/>
      <point x="226" y="705" type="curve" smooth="yes"/>
    </contour>
  </outline>
</glyph>
<glyph name="ampersand" format="1">
  <advance width="472"/>
  <unicode hex="0026"/>
  <outline>
    <contour>
      <point x="418" y="311" type="line"/>
      <point x="418" y="390" type="line"/>
      <point x="248" y="391" type="line"/>
      <point x="158" y="464" type="line"/>
      <point x="158" y="609" type="line" smooth="yes"/>
      <point x="158" y="611"/>
      <point x="159" y="612"/>
      <point x="161" y="612" type="curve" smooth="yes"/>
      <point x="241" y="612" type="line" smooth="yes"/>
      <point x="243" y="612"/>
      <point x="244" y="610"/>
      <point x="244" y="609" type="curve"/>
      <point x="244" y="479" type="line" smooth="yes"/>
      <point x="244" y="477"/>
      <point x="246" y="476"/>
      <point x="247" y="476" type="curve"/>
      <point x="346" y="476" type="line" smooth="yes"/>
      <point x="348" y="476"/>
      <point x="350" y="477"/>
      <point x="350" y="479" type="curve" smooth="yes"/>
      <point x="350" y="608" type="line" smooth="yes"/>
      <point x="350" y="659"/>
      <point x="308" y="700"/>
      <point x="255" y="700" type="curve" smooth="yes"/>
      <point x="145" y="700" type="line" smooth="yes"/>
      <point x="92" y="700"/>
      <point x="50" y="659"/>
      <point x="50" y="608" type="curve" smooth="yes"/>
      <point x="50" y="473" type="line" smooth="yes"/>
      <point x="50" y="461"/>
      <point x="56" y="448"/>
      <point x="66" y="440" type="curve" smooth="yes"/>
      <point x="133" y="390" type="line"/>
      <point x="61" y="391" type="line" smooth="yes"/>
      <point x="52" y="391"/>
      <point x="50" y="385"/>
      <point x="50" y="375" type="curve" smooth="yes"/>
      <point x="50" y="92" type="line" smooth="yes"/>
      <point x="50" y="41"/>
      <point x="92" y="0"/>
      <point x="144" y="0" type="curve" smooth="yes"/>
      <point x="275" y="0" type="line" smooth="yes"/>
      <point x="327" y="0"/>
      <point x="370" y="41"/>
      <point x="370" y="92" type="curve" smooth="yes"/>
      <point x="370" y="310" type="line"/>
      <point x="370" y="311" type="line"/>
    </contour>
    <contour>
      <point x="264" y="310" type="line"/>
      <point x="264" y="92" type="line" smooth="yes"/>
      <point x="264" y="90"/>
      <point x="262" y="89"/>
      <point x="261" y="88" type="curve"/>
      <point x="161" y="88" type="line"/>
      <point x="159" y="89"/>
      <point x="158" y="90"/>
      <point x="158" y="92" type="curve" smooth="yes"/>
      <point x="158" y="309" type="line" smooth="yes"/>
      <point x="158" y="311"/>
      <point x="159" y="312"/>
      <point x="160" y="312" type="curve"/>
      <point x="264" y="311" type="line"/>
    </contour>
  </outline>
</glyph>
<glyph name="quotesingle" format="1">
  <advance width="165"/>
  <unicode hex="0027"/>
  <outline>
    <contour>
      <point x="24" y="728" type="line" smooth="yes"/>
      <point x="22" y="728"/>
      <point x="20" y="727"/>
      <point x="20" y="725" type="curve" smooth="yes"/>
      <point x="20" y="624" type="line" smooth="yes"/>
      <point x="20" y="622"/>
      <point x="22" y="620"/>
      <point x="24" y="620" type="curve" smooth="yes"/>
      <point x="80" y="620" type="line"/>
      <point x="141" y="531" type="line" smooth="yes"/>
      <point x="142" y="530"/>
      <point x="144" y="533"/>
      <point x="145" y="535" type="curve"/>
      <point x="145" y="725" type="line"/>
      <point x="144" y="727"/>
      <point x="143" y="728"/>
      <point x="141" y="728" type="curve" smooth="yes"/>
    </contour>
  </outline>
</glyph>
<glyph name="parenleft" format="1">
  <advance width="205"/>
  <unicode hex="0028"/>
  <outline>
    <contour>
      <point x="118" y="156" type="line"/>
      <point x="118" y="84"/>
      <point x="165" y="38"/>
      <point x="175" y="38" type="curve"/>
      <point x="175" y="4" type="line" smooth="yes"/>
      <point x="175" y="2"/>
      <point x="174" y="0"/>
      <point x="172" y="0" type="curve" smooth="yes"/>
      <point x="118" y="0" type="line"/>
      <point x="58" y="1"/>
      <point x="30" y="105"/>
      <point x="30" y="158" type="curve" smooth="yes"/>
      <point x="30" y="558" type="line" smooth="yes"/>
      <point x="30" y="619"/>
      <point x="73" y="700"/>
      <point x="125" y="700" type="curve"/>
      <point x="125" y="700"/>
      <point x="164" y="700"/>
      <point x="166" y="700" type="curve" smooth="yes"/>
      <point x="168" y="700"/>
      <point x="169" y="698"/>
      <point x="169" y="696" type="curve" smooth="yes"/>
      <point x="169" y="662" type="line" smooth="yes"/>
      <point x="169" y="660"/>
      <point x="168" y="658"/>
      <point x="166" y="658" type="curve" smooth="yes"/>
      <point x="145" y="658"/>
      <point x="118" y="619"/>
      <point x="118" y="558" type="curve" smooth="yes"/>
    </contour>
  </outline>
</glyph>
<glyph name="parenright" format="1">
  <advance width="240"/>
  <unicode hex="0029"/>
  <outline>
    <contour>
      <point x="101" y="558" type="line"/>
      <point x="101" y="619"/>
      <point x="74" y="658"/>
      <point x="53" y="658" type="curve" smooth="yes"/>
      <point x="51" y="658"/>
      <point x="50" y="660"/>
      <point x="50" y="662" type="curve" smooth="yes"/>
      <point x="50" y="696" type="line" smooth="yes"/>
      <point x="50" y="698"/>
      <point x="51" y="700"/>
      <point x="53" y="700" type="curve" smooth="yes"/>
      <point x="55" y="700"/>
      <point x="94" y="700"/>
      <point x="94" y="700" type="curve" smooth="yes"/>
      <point x="146" y="700"/>
      <point x="189" y="619"/>
      <point x="189" y="558" type="curve" smooth="yes"/>
      <point x="189" y="158" type="line" smooth="yes"/>
      <point x="189" y="105"/>
      <point x="161" y="1"/>
      <point x="101" y="0" type="curve" smooth="yes"/>
      <point x="47" y="0" type="line" smooth="yes"/>
      <point x="45" y="0"/>
      <point x="44" y="2"/>
      <point x="44" y="4" type="curve" smooth="yes"/>
      <point x="44" y="38" type="line"/>
      <point x="54" y="38"/>
      <point x="101" y="84"/>
      <point x="101" y="156" type="curve" smooth="yes"/>
    </contour>
  </outline>
</glyph>
<glyph name="asterisk" format="1">
  <advance width="331"/>
  <unicode hex="002A"/>
  <outline>
    <contour>
      <point x="170" y="473" type="line" name="hr00"/>
      <point x="207" y="374" type="line" smooth="yes"/>
      <point x="208" y="372"/>
      <point x="208" y="372"/>
      <point x="210" y="372" type="curve" smooth="yes"/>
      <point x="270" y="372" type="line" smooth="yes"/>
      <point x="272" y="372"/>
      <point x="272" y="372"/>
      <point x="272" y="374" type="curve"/>
      <point x="211" y="524" type="line"/>
      <point x="310" y="524" type="line"/>
      <point x="310" y="524"/>
      <point x="311" y="525"/>
      <point x="311" y="527" type="curve" smooth="yes"/>
      <point x="311" y="577" type="line"/>
      <point x="311" y="578"/>
      <point x="310" y="579"/>
      <point x="308" y="579" type="curve" smooth="yes"/>
      <point x="211" y="579" type="line"/>
      <point x="272" y="729" type="line"/>
      <point x="272" y="731"/>
      <point x="272" y="731"/>
      <point x="270" y="731" type="curve" smooth="yes"/>
      <point x="210" y="731" type="line" smooth="yes"/>
      <point x="208" y="731"/>
      <point x="208" y="731"/>
      <point x="207" y="729" type="curve" smooth="yes"/>
      <point x="170" y="631" type="line"/>
      <point x="166" y="609" type="line"/>
      <point x="161" y="631" type="line"/>
      <point x="124" y="729" type="line" smooth="yes"/>
      <point x="123" y="731"/>
      <point x="123" y="731"/>
      <point x="122" y="731" type="curve"/>
      <point x="61" y="731" type="line"/>
      <point x="60" y="731"/>
      <point x="60" y="731"/>
      <point x="60" y="729" type="curve"/>
      <point x="120" y="579" type="line"/>
      <point x="23" y="579" type="line"/>
      <point x="22" y="579"/>
      <point x="20" y="578"/>
      <point x="20" y="577" type="curve"/>
      <point x="20" y="527" type="line" smooth="yes"/>
      <point x="20" y="525"/>
      <point x="22" y="524"/>
      <point x="22" y="524" type="curve"/>
      <point x="120" y="524" type="line"/>
      <point x="60" y="374" type="line"/>
      <point x="60" y="372"/>
      <point x="60" y="372"/>
      <point x="61" y="372" type="curve"/>
      <point x="122" y="372" type="line"/>
      <point x="123" y="372"/>
      <point x="123" y="372"/>
      <point x="124" y="374" type="curve" smooth="yes"/>
      <point x="161" y="473" type="line"/>
      <point x="166" y="494" type="line"/>
    </contour>
  </outline>
</glyph>
<glyph name="hyphen" format="1">
  <advance width="354"/>
  <unicode hex="002D"/>
  <outline>
    <contour>
      <point x="34" y="301" type="line"/>
      <point x="35" y="301"/>
      <point x="30" y="299"/>
      <point x="30" y="297" type="curve" smooth="yes"/>
      <point x="30" y="237" type="line" smooth="yes"/>
      <point x="30" y="235"/>
      <point x="32" y="233"/>
      <point x="33" y="233" type="curve"/>
      <point x="321" y="233" type="line"/>
      <point x="322" y="233"/>
      <point x="324" y="235"/>
      <point x="324" y="237" type="curve" smooth="yes"/>
      <point x="324" y="297" type="line" smooth="yes"/>
      <point x="324" y="299"/>
      <point x="322" y="301"/>
      <point x="320" y="301" type="curve" smooth="yes"/>
    </contour>
  </outline>
</glyph>
<glyph name="zero" format="1">
  <advance width="422"/>
  <unicode hex="0030"/>
  <outline>
    <contour>
      <point x="262" y="95" type="line"/>
      <point x="262" y="93"/>
      <point x="260" y="91"/>
      <point x="259" y="91" type="curve"/>
      <point x="259" y="91" type="line"/>
      <point x="259" y="91" type="line"/>
      <point x="163" y="91" type="line"/>
      <point x="163" y="91" type="line"/>
      <point x="163" y="91" type="line" smooth="yes"/>
      <point x="161" y="91"/>
      <point x="160" y="93"/>
      <point x="160" y="95" type="curve"/>
      <point x="160" y="608" type="line" smooth="yes"/>
      <point x="160" y="610"/>
      <point x="161" y="611"/>
      <point x="163" y="611" type="curve"/>
      <point x="163" y="611" type="line"/>
      <point x="163" y="611" type="line"/>
      <point x="259" y="611" type="line"/>
      <point x="259" y="611" type="line"/>
      <point x="259" y="611" type="line" smooth="yes"/>
      <point x="260" y="611"/>
      <point x="262" y="610"/>
      <point x="262" y="608" type="curve" smooth="yes"/>
    </contour>
    <contour>
      <point x="271" y="701" type="line"/>
      <point x="150" y="701" type="line"/>
      <point x="151" y="701" type="line" smooth="yes"/>
      <point x="101" y="701"/>
      <point x="60" y="669"/>
      <point x="60" y="618" type="curve"/>
      <point x="60" y="85" type="line" smooth="yes"/>
      <point x="60" y="33"/>
      <point x="101" y="1"/>
      <point x="151" y="1" type="curve"/>
      <point x="150" y="1" type="line"/>
      <point x="271" y="1" type="line"/>
      <point x="270" y="1" type="line" smooth="yes"/>
      <point x="321" y="1"/>
      <point x="362" y="33"/>
      <point x="362" y="85" type="curve"/>
      <point x="362" y="618" type="line" smooth="yes"/>
      <point x="362" y="669"/>
      <point x="321" y="701"/>
      <point x="270" y="701" type="curve"/>
    </contour>
  </outline>
</glyph>
<glyph name="one" format="1">
  <advance width="289"/>
  <unicode hex="0031"/>
  <outline>
    <contour>
      <point x="223" y="695" type="line"/>
      <point x="223" y="697"/>
      <point x="221" y="699"/>
      <point x="219" y="699" type="curve"/>
      <point x="38" y="699" type="line" smooth="yes"/>
      <point x="36" y="699"/>
      <point x="35" y="697"/>
      <point x="35" y="695" type="curve"/>
      <point x="35" y="606" type="line" smooth="yes"/>
      <point x="35" y="604"/>
      <point x="36" y="602"/>
      <point x="38" y="602" type="curve"/>
      <point x="101" y="602" type="line"/>
      <point x="101" y="2" type="line" smooth="yes"/>
      <point x="101" y="0"/>
      <point x="102" y="-1"/>
      <point x="104" y="-1" type="curve"/>
      <point x="219" y="-1" type="line" smooth="yes"/>
      <point x="221" y="-1"/>
      <point x="223" y="0"/>
      <point x="223" y="2" type="curve" smooth="yes"/>
    </contour>
  </outline>
</glyph>
<glyph name="two" format="1">
  <advance width="436"/>
  <unicode hex="0032"/>
  <outline>
    <contour>
      <point x="175" y="101" type="curve"/>
      <point x="175" y="185" type="line"/>
      <point x="175" y="185"/>
      <point x="378" y="449"/>
      <point x="371" y="442" type="curve" smooth="yes"/>
      <point x="372" y="444"/>
      <point x="373" y="448"/>
      <point x="373" y="451" type="curve" smooth="yes"/>
      <point x="373" y="611" type="line" smooth="yes"/>
      <point x="373" y="662"/>
      <point x="337" y="703"/>
      <point x="284" y="703" type="curve" smooth="yes"/>
      <point x="170" y="703" type="line" smooth="yes"/>
      <point x="118" y="703"/>
      <point x="79" y="661"/>
      <point x="79" y="610" type="curve" smooth="yes"/>
      <point x="79" y="521" type="line"/>
      <point x="178" y="521" type="line"/>
      <point x="178" y="611" type="line"/>
      <point x="178" y="612"/>
      <point x="179" y="614"/>
      <point x="181" y="614" type="curve" smooth="yes"/>
      <point x="268" y="614" type="line" smooth="yes"/>
      <point x="270" y="614"/>
      <point x="271" y="613"/>
      <point x="271" y="611" type="curve" smooth="yes"/>
      <point x="271" y="501" type="line" smooth="yes"/>
      <point x="271" y="499"/>
      <point x="271" y="495"/>
      <point x="269" y="493" type="curve"/>
      <point x="269" y="492"/>
      <point x="70" y="228"/>
      <point x="70" y="228" type="curve"/>
      <point x="67" y="224"/>
      <point x="67" y="221"/>
      <point x="67" y="216" type="curve" smooth="yes"/>
      <point x="67" y="3" type="line" smooth="yes"/>
      <point x="67" y="1"/>
      <point x="68" y="0"/>
      <point x="69" y="0" type="curve"/>
      <point x="296" y="0" type="line"/>
      <point x="347" y="0"/>
      <point x="386" y="42"/>
      <point x="386" y="93" type="curve" smooth="yes"/>
      <point x="386" y="182" type="line"/>
      <point x="287" y="182" type="line"/>
      <point x="287" y="96" type="line"/>
      <point x="177" y="96" type="line" smooth="yes"/>
      <point x="175" y="96"/>
      <point x="175" y="98"/>
    </contour>
  </outline>
</glyph>
<glyph name="five" format="1">
  <advance width="418"/>
  <unicode hex="0035"/>
  <outline>
    <contour>
      <point x="174" y="450" type="line" smooth="yes"/>
      <point x="167" y="450"/>
      <point x="165" y="460"/>
      <point x="165" y="466" type="curve"/>
      <point x="165" y="610" type="line" smooth="yes"/>
      <point x="165" y="612"/>
      <point x="166" y="614"/>
      <point x="168" y="614" type="curve"/>
      <point x="168" y="614" type="line"/>
      <point x="168" y="614" type="line"/>
      <point x="259" y="614" type="line" smooth="yes"/>
      <point x="260" y="614"/>
      <point x="262" y="612"/>
      <point x="262" y="611" type="curve"/>
      <point x="262" y="530" type="line" smooth="yes"/>
      <point x="262" y="528"/>
      <point x="263" y="527"/>
      <point x="265" y="527" type="curve"/>
      <point x="348" y="527" type="line" smooth="yes"/>
      <point x="350" y="527"/>
      <point x="351" y="528"/>
      <point x="351" y="530" type="curve"/>
      <point x="351" y="696" type="line" smooth="yes"/>
      <point x="351" y="697"/>
      <point x="350" y="699"/>
      <point x="348" y="699" type="curve"/>
      <point x="59" y="699" type="line" smooth="yes"/>
      <point x="58" y="699"/>
      <point x="57" y="698"/>
      <point x="56" y="696" type="curve"/>
      <point x="56" y="363" type="line" smooth="yes"/>
      <point x="56" y="361"/>
      <point x="58" y="360"/>
      <point x="59" y="360" type="curve"/>
      <point x="223" y="360" type="line" smooth="yes"/>
      <point x="253" y="360"/>
      <point x="258" y="349"/>
      <point x="258" y="321" type="curve"/>
      <point x="258" y="92" type="line" smooth="yes"/>
      <point x="258" y="90"/>
      <point x="257" y="89"/>
      <point x="255" y="88" type="curve"/>
      <point x="255" y="88" type="line"/>
      <point x="255" y="88" type="line"/>
      <point x="166" y="89" type="line" smooth="yes"/>
      <point x="164" y="89"/>
      <point x="163" y="90"/>
      <point x="163" y="92" type="curve"/>
      <point x="163" y="240" type="line"/>
      <point x="57" y="240" type="line"/>
      <point x="57" y="92" type="line" smooth="yes"/>
      <point x="57" y="41"/>
      <point x="99" y="-1"/>
      <point x="152" y="-1" type="curve"/>
      <point x="254" y="-1" type="line"/>
      <point x="267" y="-1" type="line" smooth="yes"/>
      <point x="319" y="-1"/>
      <point x="362" y="41"/>
      <point x="362" y="92" type="curve"/>
      <point x="362" y="357" type="line" smooth="yes"/>
      <point x="362" y="409"/>
      <point x="319" y="450"/>
      <point x="267" y="450" type="curve"/>
    </contour>
  </outline>
</glyph>
<glyph name="six" format="1">
  <advance width="413"/>
  <unicode hex="0036"/>
  <outline>
    <contour>
      <point x="263" y="430" type="curve"/>
      <point x="173" y="430" type="line"/>
      <point x="173" y="607" type="line"/>
      <point x="173" y="608"/>
      <point x="175" y="610"/>
      <point x="176" y="610" type="curve"/>
      <point x="261" y="610" type="line"/>
      <point x="262" y="610"/>
      <point x="263" y="609"/>
      <point x="263" y="607" type="curve"/>
      <point x="263" y="528" type="line"/>
      <point x="263" y="526"/>
      <point x="265" y="524"/>
      <point x="267" y="524" type="curve"/>
      <point x="344" y="524" type="line"/>
      <point x="345" y="524"/>
      <point x="346" y="526"/>
      <point x="346" y="528" type="curve"/>
      <point x="346" y="697" type="line"/>
      <point x="346" y="698"/>
      <point x="345" y="700"/>
      <point x="344" y="700" type="curve"/>
      <point x="337" y="700" type="line"/>
      <point x="157" y="700" type="line"/>
      <point x="111" y="700"/>
      <point x="69" y="658"/>
      <point x="69" y="606" type="curve"/>
      <point x="69" y="93" type="line"/>
      <point x="69" y="42"/>
      <point x="111" y="0"/>
      <point x="164" y="0" type="curve"/>
      <point x="163" y="0" type="line"/>
      <point x="267" y="0" type="line"/>
      <point x="266" y="0" type="line"/>
      <point x="318" y="0"/>
      <point x="357" y="42"/>
      <point x="357" y="93" type="curve"/>
      <point x="357" y="340" type="line"/>
      <point x="357" y="392"/>
      <point x="315" y="430"/>
    </contour>
    <contour>
      <point x="256" y="108" type="line"/>
      <point x="256" y="106"/>
      <point x="255" y="105"/>
      <point x="253" y="105" type="curve"/>
      <point x="176" y="105" type="line"/>
      <point x="175" y="105"/>
      <point x="173" y="106"/>
      <point x="173" y="108" type="curve"/>
      <point x="173" y="348" type="line"/>
      <point x="173" y="349"/>
      <point x="175" y="351"/>
      <point x="176" y="351" type="curve"/>
      <point x="253" y="351" type="line"/>
      <point x="255" y="351"/>
      <point x="256" y="349"/>
      <point x="256" y="348" type="curve"/>
    </contour>
  </outline>
</glyph>
<glyph name="greater" format="1">
  <advance width="364"/>
  <unicode hex="003E"/>
  <outline>
    <contour>
      <point x="76" y="44" type="line"/>
      <point x="81" y="43"/>
      <point x="85" y="48"/>
      <point x="85" y="48" type="curve"/>
      <point x="309" y="274" type="line" smooth="yes"/>
      <point x="311" y="276"/>
      <point x="313" y="281"/>
      <point x="314" y="284" type="curve" smooth="yes"/>
      <point x="314" y="286" type="line"/>
      <point x="314" y="287" type="line"/>
      <point x="313" y="291"/>
      <point x="311" y="295"/>
      <point x="309" y="298" type="curve" smooth="yes"/>
      <point x="85" y="524" type="line"/>
      <point x="85" y="524"/>
      <point x="81" y="529"/>
      <point x="76" y="528" type="curve"/>
      <point x="53" y="529" type="line"/>
      <point x="52" y="529"/>
      <point x="50" y="527"/>
      <point x="50" y="525" type="curve" smooth="yes"/>
      <point x="50" y="430" type="line" smooth="yes"/>
      <point x="50" y="428"/>
      <point x="51" y="427"/>
      <point x="53" y="427" type="curve"/>
      <point x="185" y="297" type="line"/>
      <point x="187" y="294"/>
      <point x="189" y="289"/>
      <point x="189" y="286" type="curve" smooth="yes"/>
      <point x="189" y="284" type="line"/>
      <point x="189" y="283"/>
      <point x="187" y="277"/>
      <point x="185" y="275" type="curve" smooth="yes"/>
      <point x="53" y="145" type="line" smooth="yes"/>
      <point x="51" y="144"/>
      <point x="50" y="143"/>
      <point x="50" y="142" type="curve"/>
      <point x="50" y="47" type="line" smooth="yes"/>
      <point x="50" y="45"/>
      <point x="52" y="43"/>
      <point x="53" y="43" type="curve"/>
    </contour>
  </outline>
</glyph>
<glyph name="B" format="1">
  <advance width="458"/>
  <unicode hex="0042"/>
  <outline>
    <contour>
      <point x="287" y="94" type="line" smooth="yes"/>
      <point x="287" y="92"/>
      <point x="285" y="91"/>
      <point x="284" y="91" type="curve"/>
      <point x="179" y="91" type="line" smooth="yes"/>
      <point x="177" y="91"/>
      <point x="176" y="92"/>
      <point x="176" y="94" type="curve"/>
      <point x="176" y="95" type="line"/>
      <point x="176" y="352" type="line" smooth="yes"/>
      <point x="176" y="353"/>
      <point x="177" y="355"/>
      <point x="178" y="355" type="curve"/>
      <point x="231" y="355" type="line" smooth="yes"/>
      <point x="289" y="355"/>
      <point x="287" y="272"/>
      <point x="287" y="272" type="curve"/>
    </contour>
    <contour>
      <point x="176" y="609" type="line"/>
      <point x="176" y="610" type="line" smooth="yes"/>
      <point x="176" y="611"/>
      <point x="177" y="613"/>
      <point x="179" y="613" type="curve"/>
      <point x="280" y="613" type="line" smooth="yes"/>
      <point x="282" y="613"/>
      <point x="283" y="611"/>
      <point x="283" y="609" type="curve"/>
      <point x="283" y="514" type="line" smooth="yes"/>
      <point x="283" y="438"/>
      <point x="246" y="435"/>
      <point x="227" y="435" type="curve"/>
      <point x="179" y="435" type="line" smooth="yes"/>
      <point x="177" y="435"/>
      <point x="176" y="437"/>
      <point x="176" y="439" type="curve" smooth="yes"/>
    </contour>
    <contour>
      <point x="393" y="608" type="line" smooth="yes"/>
      <point x="393" y="661"/>
      <point x="350" y="703"/>
      <point x="298" y="703" type="curve"/>
      <point x="69" y="703" type="line" smooth="yes"/>
      <point x="68" y="703"/>
      <point x="66" y="701"/>
      <point x="66" y="700" type="curve"/>
      <point x="66" y="2" type="line" smooth="yes"/>
      <point x="66" y="0"/>
      <point x="68" y="-1"/>
      <point x="69" y="-1" type="curve"/>
      <point x="303" y="-1" type="line" smooth="yes"/>
      <point x="356" y="-1"/>
      <point x="397" y="41"/>
      <point x="397" y="94" type="curve"/>
      <point x="397" y="313" type="line" smooth="yes"/>
      <point x="397" y="393"/>
      <point x="332" y="396"/>
      <point x="315" y="395" type="curve"/>
      <point x="332" y="397"/>
      <point x="393" y="413"/>
      <point x="393" y="478" type="curve"/>
    </contour>
  </outline>
</glyph>
<glyph name="J" format="1">
  <advance width="397"/>
  <unicode hex="004A"/>
  <outline>
    <contour>
      <point x="331" y="701" type="line"/>
      <point x="331" y="702"/>
      <point x="329" y="704"/>
      <point x="327" y="704" type="curve"/>
      <point x="224" y="704" type="line" smooth="yes"/>
      <point x="222" y="704"/>
      <point x="221" y="703"/>
      <point x="221" y="701" type="curve"/>
      <point x="221" y="95" type="line" smooth="yes"/>
      <point x="221" y="94"/>
      <point x="220" y="92"/>
      <point x="218" y="92" type="curve"/>
      <point x="218" y="92" type="line"/>
      <point x="218" y="92" type="line"/>
      <point x="127" y="92" type="line"/>
      <point x="127" y="92" type="line"/>
      <point x="127" y="92" type="line" smooth="yes"/>
      <point x="126" y="92"/>
      <point x="124" y="94"/>
      <point x="124" y="95" type="curve"/>
      <point x="124" y="285" type="line" smooth="yes"/>
      <point x="124" y="287"/>
      <point x="122" y="289"/>
      <point x="121" y="289" type="curve"/>
      <point x="23" y="289" type="line" smooth="yes"/>
      <point x="21" y="289"/>
      <point x="20" y="287"/>
      <point x="20" y="285" type="curve"/>
      <point x="20" y="95" type="line" smooth="yes"/>
      <point x="20" y="42"/>
      <point x="51" y="0"/>
      <point x="103" y="0" type="curve"/>
      <point x="237" y="0" type="line"/>
      <point x="236" y="0" type="line" smooth="yes"/>
      <point x="288" y="0"/>
      <point x="331" y="42"/>
      <point x="331" y="95" type="curve" smooth="yes"/>
    </contour>
  </outline>
</glyph>
<glyph name="K" format="1">
  <advance width="484"/>
  <unicode hex="004B"/>
  <outline>
    <contour>
      <point x="331" y="389" type="curve" smooth="yes"/>
      <point x="349" y="391"/>
      <point x="379" y="417"/>
      <point x="379" y="482" type="curve"/>
      <point x="379" y="701" type="line" smooth="yes"/>
      <point x="379" y="703"/>
      <point x="378" y="704"/>
      <point x="376" y="704" type="curve"/>
      <point x="278" y="704" type="line" smooth="yes"/>
      <point x="276" y="704"/>
      <point x="275" y="703"/>
      <point x="275" y="701" type="curve"/>
      <point x="275" y="512" type="line" smooth="yes"/>
      <point x="275" y="437"/>
      <point x="242" y="424"/>
      <point x="223" y="424" type="curve"/>
      <point x="180" y="424" type="line" smooth="yes"/>
      <point x="178" y="424"/>
      <point x="176" y="425"/>
      <point x="176" y="427" type="curve"/>
      <point x="176" y="701" type="line" smooth="yes"/>
      <point x="176" y="703"/>
      <point x="175" y="704"/>
      <point x="173" y="704" type="curve"/>
      <point x="70" y="704" type="line" smooth="yes"/>
      <point x="68" y="704"/>
      <point x="66" y="703"/>
      <point x="66" y="701" type="curve"/>
      <point x="66" y="3" type="line" smooth="yes"/>
      <point x="66" y="1"/>
      <point x="68" y="-1"/>
      <point x="70" y="-1" type="curve"/>
      <point x="173" y="-1" type="line" smooth="yes"/>
      <point x="174" y="-1"/>
      <point x="176" y="1"/>
      <point x="176" y="3" type="curve"/>
      <point x="176" y="340" type="line" smooth="yes"/>
      <point x="176" y="342"/>
      <point x="177" y="343"/>
      <point x="179" y="344" type="curve"/>
      <point x="262" y="344" type="line" smooth="yes"/>
      <point x="320" y="344"/>
      <point x="315" y="261"/>
      <point x="315" y="261" type="curve"/>
      <point x="315" y="3" type="line" smooth="yes"/>
      <point x="315" y="1"/>
      <point x="316" y="0"/>
      <point x="318" y="0" type="curve"/>
      <point x="416" y="0" type="line" smooth="yes"/>
      <point x="418" y="0"/>
      <point x="419" y="1"/>
      <point x="419" y="3" type="curve"/>
      <point x="419" y="306" type="line" smooth="yes"/>
      <point x="419" y="387"/>
      <point x="349" y="390"/>
    </contour>
  </outline>
</glyph>
<glyph name="N" format="1">
  <advance width="470"/>
  <unicode hex="004E"/>
  <outline>
    <contour>
      <point x="157" y="704" type="line"/>
      <point x="158" y="704" type="line" smooth="yes"/>
      <point x="106" y="704"/>
      <point x="64" y="662"/>
      <point x="64" y="609" type="curve"/>
      <point x="64" y="3" type="line" smooth="yes"/>
      <point x="64" y="1"/>
      <point x="65" y="0"/>
      <point x="67" y="0" type="curve"/>
      <point x="171" y="0" type="line" smooth="yes"/>
      <point x="173" y="0"/>
      <point x="174" y="1"/>
      <point x="174" y="3" type="curve"/>
      <point x="174" y="611" type="line" smooth="yes"/>
      <point x="174" y="612"/>
      <point x="176" y="614"/>
      <point x="177" y="614" type="curve"/>
      <point x="177" y="614" type="line"/>
      <point x="177" y="614" type="line"/>
      <point x="293" y="614" type="line"/>
      <point x="293" y="614" type="line"/>
      <point x="293" y="614" type="line" smooth="yes"/>
      <point x="294" y="614"/>
      <point x="296" y="612"/>
      <point x="296" y="611" type="curve"/>
      <point x="296" y="3" type="line" smooth="yes"/>
      <point x="296" y="1"/>
      <point x="297" y="0"/>
      <point x="299" y="0" type="curve"/>
      <point x="403" y="0" type="line" smooth="yes"/>
      <point x="405" y="0"/>
      <point x="406" y="1"/>
      <point x="406" y="3" type="curve"/>
      <point x="406" y="609" type="line" smooth="yes"/>
      <point x="406" y="662"/>
      <point x="364" y="704"/>
      <point x="312" y="704" type="curve"/>
    </contour>
  </outline>
</glyph>
<glyph name="P" format="1">
  <advance width="456"/>
  <unicode hex="0050"/>
  <outline>
    <contour>
      <point x="292" y="442" type="line"/>
      <point x="292" y="377"/>
      <point x="249" y="364"/>
      <point x="230" y="364" type="curve"/>
      <point x="179" y="364" type="line" smooth="yes"/>
      <point x="177" y="364"/>
      <point x="176" y="365"/>
      <point x="176" y="367" type="curve"/>
      <point x="176" y="611" type="line"/>
      <point x="176" y="611" type="line" smooth="yes"/>
      <point x="176" y="613"/>
      <point x="177" y="614"/>
      <point x="179" y="614" type="curve"/>
      <point x="289" y="614" type="line" smooth="yes"/>
      <point x="291" y="614"/>
      <point x="292" y="613"/>
      <point x="292" y="611" type="curve" smooth="yes"/>
    </contour>
    <contour>
      <point x="69" y="704" type="line" smooth="yes"/>
      <point x="67" y="704"/>
      <point x="66" y="703"/>
      <point x="66" y="701" type="curve"/>
      <point x="66" y="4" type="line" smooth="yes"/>
      <point x="66" y="2"/>
      <point x="67" y="0"/>
      <point x="69" y="0" type="curve"/>
      <point x="172" y="0" type="line" smooth="yes"/>
      <point x="174" y="0"/>
      <point x="176" y="2"/>
      <point x="176" y="4" type="curve"/>
      <point x="176" y="281" type="line" smooth="yes"/>
      <point x="176" y="282"/>
      <point x="177" y="284"/>
      <point x="178" y="284" type="curve"/>
      <point x="296" y="284" type="line" smooth="yes"/>
      <point x="349" y="284"/>
      <point x="396" y="332"/>
      <point x="396" y="397" type="curve"/>
      <point x="396" y="610" type="line" smooth="yes"/>
      <point x="396" y="662"/>
      <point x="353" y="704"/>
      <point x="300" y="704" type="curve"/>
    </contour>
  </outline>
</glyph>
<glyph name="R" format="1">
  <advance width="469"/>
  <unicode hex="0052"/>
  <outline>
    <contour>
      <point x="293" y="501" type="line"/>
      <point x="293" y="427"/>
      <point x="252" y="424"/>
      <point x="233" y="424" type="curve" smooth="yes"/>
      <point x="180" y="424" type="line" smooth="yes"/>
      <point x="178" y="424"/>
      <point x="176" y="425"/>
      <point x="176" y="427" type="curve" smooth="yes"/>
      <point x="176" y="610" type="line"/>
      <point x="176" y="611" type="line"/>
      <point x="177" y="613"/>
      <point x="178" y="614"/>
      <point x="180" y="614" type="curve" smooth="yes"/>
      <point x="290" y="614" type="line" smooth="yes"/>
      <point x="292" y="614"/>
      <point x="293" y="612"/>
      <point x="293" y="611" type="curve"/>
    </contour>
    <contour>
      <point x="398" y="615" type="curve"/>
      <point x="395" y="665"/>
      <point x="354" y="704"/>
      <point x="303" y="704" type="curve" smooth="yes"/>
      <point x="69" y="704" type="line" smooth="yes"/>
      <point x="67" y="704"/>
      <point x="66" y="702"/>
      <point x="66" y="701" type="curve"/>
      <point x="66" y="701" type="line"/>
      <point x="66" y="3" type="line"/>
      <point x="66" y="2"/>
      <point x="67" y="0"/>
      <point x="69" y="0" type="curve" smooth="yes"/>
      <point x="174" y="0" type="line" smooth="yes"/>
      <point x="176" y="0"/>
      <point x="176" y="1"/>
      <point x="176" y="3" type="curve" smooth="yes"/>
      <point x="176" y="340" type="line"/>
      <point x="177" y="342"/>
      <point x="178" y="343"/>
      <point x="179" y="344" type="curve"/>
      <point x="238" y="344" type="line" smooth="yes"/>
      <point x="296" y="344"/>
      <point x="303" y="262"/>
      <point x="303" y="262" type="curve"/>
      <point x="303" y="4" type="line" smooth="yes"/>
      <point x="303" y="2"/>
      <point x="305" y="0"/>
      <point x="307" y="0" type="curve" smooth="yes"/>
      <point x="410" y="0" type="line" smooth="yes"/>
      <point x="412" y="0"/>
      <point x="413" y="2"/>
      <point x="413" y="4" type="curve" smooth="yes"/>
      <point x="413" y="302" type="line" smooth="yes"/>
      <point x="413" y="382"/>
      <point x="337" y="384"/>
      <point x="320" y="383" type="curve"/>
      <point x="337" y="385"/>
      <point x="398" y="403"/>
      <point x="398" y="467" type="curve" smooth="yes"/>
      <point x="398" y="467"/>
      <point x="398" y="615"/>
    </contour>
  </outline>
</glyph>
<glyph name="S" format="1">
  <advance width="445"/>
  <unicode hex="0053"/>
  <outline>
    <contour>
      <point x="373" y="351" type="curve" smooth="yes"/>
      <point x="367" y="355"/>
      <point x="189" y="463"/>
      <point x="189" y="463" type="curve" smooth="yes"/>
      <point x="189" y="463"/>
      <point x="184" y="466"/>
      <point x="181" y="471" type="curve" smooth="yes"/>
      <point x="178" y="477"/>
      <point x="179" y="484"/>
      <point x="179" y="484" type="curve"/>
      <point x="179" y="611" type="line" smooth="yes"/>
      <point x="179" y="613"/>
      <point x="181" y="614"/>
      <point x="182" y="614" type="curve"/>
      <point x="182" y="614" type="line"/>
      <point x="268" y="614" type="line" smooth="yes"/>
      <point x="270" y="614"/>
      <point x="272" y="613"/>
      <point x="272" y="611" type="curve"/>
      <point x="272" y="514" type="line"/>
      <point x="376" y="514" type="line"/>
      <point x="376" y="611" type="line" smooth="yes"/>
      <point x="376" y="662"/>
      <point x="334" y="704"/>
      <point x="282" y="704" type="curve"/>
      <point x="163" y="704" type="line" smooth="yes"/>
      <point x="111" y="704"/>
      <point x="69" y="662"/>
      <point x="69" y="611" type="curve"/>
      <point x="69" y="429" type="line" smooth="yes"/>
      <point x="69" y="417"/>
      <point x="74" y="403"/>
      <point x="85" y="396" type="curve" smooth="yes"/>
      <point x="92" y="390"/>
      <point x="244" y="299"/>
      <point x="270" y="283" type="curve" smooth="yes"/>
      <point x="273" y="282"/>
      <point x="273" y="281"/>
      <point x="274" y="280" type="curve" smooth="yes"/>
      <point x="274" y="279"/>
      <point x="274" y="276"/>
      <point x="274" y="276" type="curve"/>
      <point x="274" y="95" type="line" smooth="yes"/>
      <point x="274" y="93"/>
      <point x="273" y="92"/>
      <point x="271" y="92" type="curve"/>
      <point x="271" y="92" type="line"/>
      <point x="271" y="92" type="line"/>
      <point x="168" y="92" type="line" smooth="yes"/>
      <point x="166" y="92"/>
      <point x="165" y="93"/>
      <point x="165" y="95" type="curve"/>
      <point x="165" y="240" type="line"/>
      <point x="61" y="240" type="line"/>
      <point x="61" y="93" type="line" smooth="yes"/>
      <point x="61" y="42"/>
      <point x="103" y="0"/>
      <point x="156" y="0" type="curve"/>
      <point x="289" y="0" type="line" smooth="yes"/>
      <point x="341" y="0"/>
      <point x="384" y="42"/>
      <point x="384" y="93" type="curve"/>
      <point x="384" y="330" type="line" smooth="yes"/>
      <point x="384" y="340"/>
      <point x="379" y="347"/>
    </contour>
  </outline>
</glyph>
<glyph name="T" format="1">
  <advance width="367"/>
  <unicode hex="0054"/>
  <outline>
    <contour>
      <point x="19" y="704" type="line" smooth="yes"/>
      <point x="17" y="704"/>
      <point x="16" y="702"/>
      <point x="16" y="700" type="curve"/>
      <point x="16" y="618" type="line" smooth="yes"/>
      <point x="16" y="616"/>
      <point x="17" y="614"/>
      <point x="19" y="614" type="curve"/>
      <point x="129" y="614" type="line"/>
      <point x="129" y="2" type="line" smooth="yes"/>
      <point x="129" y="0"/>
      <point x="130" y="-1"/>
      <point x="132" y="-1" type="curve"/>
      <point x="235" y="-1" type="line" smooth="yes"/>
      <point x="237" y="-1"/>
      <point x="239" y="1"/>
      <point x="239" y="2" type="curve"/>
      <point x="239" y="614" type="line"/>
      <point x="347" y="614" type="line" smooth="yes"/>
      <point x="349" y="614"/>
      <point x="351" y="616"/>
      <point x="351" y="618" type="curve"/>
      <point x="351" y="700" type="line" smooth="yes"/>
      <point x="351" y="702"/>
      <point x="349" y="704"/>
      <point x="348" y="704" type="curve"/>
    </contour>
  </outline>
</glyph>
<glyph name="U" format="1">
  <advance width="451"/>
  <unicode hex="0055"/>
  <outline>
    <contour>
      <point x="280" y="704" type="line" smooth="yes"/>
      <point x="278" y="704"/>
      <point x="277" y="703"/>
      <point x="277" y="701" type="curve"/>
      <point x="277" y="701" type="line"/>
      <point x="277" y="96" type="line" smooth="yes"/>
      <point x="277" y="94"/>
      <point x="275" y="92"/>
      <point x="273" y="92" type="curve"/>
      <point x="178" y="92" type="line" smooth="yes"/>
      <point x="176" y="92"/>
      <point x="174" y="94"/>
      <point x="174" y="96" type="curve"/>
      <point x="174" y="701" type="line" smooth="yes"/>
      <point x="174" y="703"/>
      <point x="173" y="704"/>
      <point x="171" y="704" type="curve"/>
      <point x="68" y="704" type="line" smooth="yes"/>
      <point x="66" y="704"/>
      <point x="64" y="703"/>
      <point x="64" y="701" type="curve"/>
      <point x="64" y="95" type="line" smooth="yes"/>
      <point x="64" y="43"/>
      <point x="107" y="0"/>
      <point x="159" y="0" type="curve"/>
      <point x="292" y="0" type="line" smooth="yes"/>
      <point x="344" y="0"/>
      <point x="387" y="43"/>
      <point x="387" y="95" type="curve"/>
      <point x="387" y="701" type="line" smooth="yes"/>
      <point x="387" y="703"/>
      <point x="385" y="704"/>
      <point x="383" y="704" type="curve"/>
    </contour>
    <contour>
      <point x="220" y="729" type="move" name="Top"/>
    </contour>
  </outline>
</glyph>
<glyph name="V" format="1">
  <advance width="448"/>
  <unicode hex="0056"/>
  <outline>
    <contour>
      <point x="61" y="156" type="line" smooth="yes"/>
      <point x="61" y="153"/>
      <point x="62" y="145"/>
      <point x="62" y="143" type="curve" smooth="yes"/>
      <point x="72" y="114"/>
      <point x="162" y="-1"/>
      <point x="224" y="-1" type="curve" smooth="yes"/>
      <point x="285" y="-1"/>
      <point x="373" y="112"/>
      <point x="385" y="143" type="curve" smooth="yes"/>
      <point x="386" y="145"/>
      <point x="387" y="153"/>
      <point x="387" y="156" type="curve"/>
      <point x="387" y="700" type="line" smooth="yes"/>
      <point x="387" y="702"/>
      <point x="385" y="704"/>
      <point x="384" y="704" type="curve"/>
      <point x="280" y="704" type="line" smooth="yes"/>
      <point x="278" y="704"/>
      <point x="277" y="702"/>
      <point x="277" y="701" type="curve" smooth="yes"/>
      <point x="277" y="701"/>
      <point x="277" y="181"/>
      <point x="277" y="171" type="curve" smooth="yes"/>
      <point x="277" y="161"/>
      <point x="239" y="106"/>
      <point x="224" y="106" type="curve" smooth="yes"/>
      <point x="218" y="106"/>
      <point x="171" y="156"/>
      <point x="171" y="171" type="curve"/>
      <point x="171" y="700" type="line" smooth="yes"/>
      <point x="171" y="702"/>
      <point x="170" y="704"/>
      <point x="168" y="704" type="curve"/>
      <point x="65" y="704" type="line" smooth="yes"/>
      <point x="63" y="704"/>
      <point x="61" y="702"/>
      <point x="61" y="701" type="curve"/>
    </contour>
  </outline>
</glyph>
<glyph name="bracketleft" format="1">
  <advance width="303"/>
  <unicode hex="005B"/>
  <outline>
    <contour>
      <point x="54" y="700" type="line" smooth="yes"/>
      <point x="52" y="700"/>
      <point x="51" y="698"/>
      <point x="51" y="696" type="curve" smooth="yes"/>
      <point x="50" y="4" type="line" smooth="yes"/>
      <point x="50" y="2"/>
      <point x="51" y="0"/>
      <point x="53" y="0" type="curve" smooth="yes"/>
      <point x="250" y="0" type="line"/>
      <point x="251" y="0"/>
      <point x="253" y="2"/>
      <point x="253" y="4" type="curve" smooth="yes"/>
      <point x="253" y="64" type="line" smooth="yes"/>
      <point x="253" y="66"/>
      <point x="251" y="68"/>
      <point x="249" y="68" type="curve" smooth="yes"/>
      <point x="145" y="68" type="line"/>
      <point x="145" y="632" type="line"/>
      <point x="249" y="632" type="line" smooth="yes"/>
      <point x="251" y="632"/>
      <point x="253" y="634"/>
      <point x="253" y="636" type="curve" smooth="yes"/>
      <point x="253" y="696" type="line" smooth="yes"/>
      <point x="253" y="698"/>
      <point x="251" y="700"/>
      <point x="250" y="700" type="curve"/>
    </contour>
  </outline>
</glyph>
<glyph name="asciicircum" format="1">
  <advance width="372"/>
  <unicode hex="005E"/>
  <outline>
    <contour>
      <point x="50" y="564" type="line"/>
      <point x="50" y="564"/>
      <point x="51" y="562"/>
      <point x="52" y="562" type="curve"/>
      <point x="105" y="562" type="line"/>
      <point x="106" y="562"/>
      <point x="106" y="563"/>
      <point x="106" y="564" type="curve"/>
      <point x="179" y="637" type="line"/>
      <point x="180" y="639"/>
      <point x="184" y="640"/>
      <point x="184" y="640" type="curve"/>
      <point x="185" y="640" type="line"/>
      <point x="186" y="640"/>
      <point x="189" y="639"/>
      <point x="191" y="637" type="curve"/>
      <point x="264" y="564" type="line"/>
      <point x="264" y="563"/>
      <point x="264" y="562"/>
      <point x="265" y="562" type="curve"/>
      <point x="318" y="562" type="line"/>
      <point x="319" y="562"/>
      <point x="320" y="564"/>
      <point x="320" y="564" type="curve"/>
      <point x="319" y="587" type="line"/>
      <point x="320" y="591"/>
      <point x="317" y="592"/>
      <point x="317" y="592" type="curve"/>
      <point x="191" y="717" type="line"/>
      <point x="190" y="718"/>
      <point x="187" y="719"/>
      <point x="186" y="719" type="curve"/>
      <point x="184" y="719" type="line"/>
      <point x="183" y="719"/>
      <point x="179" y="718"/>
      <point x="179" y="717" type="curve"/>
      <point x="53" y="592" type="line"/>
      <point x="53" y="592"/>
      <point x="50" y="591"/>
      <point x="51" y="587" type="curve"/>
    </contour>
    <contour>
      <point x="187" y="524" type="move" name="_Top"/>
    </contour>
  </outline>
</glyph>
<glyph name="a" format="1">
  <advance width="433"/>
  <unicode hex="0061"/>
  <outline>
    <contour>
      <point x="139" y="281" type="line" smooth="yes"/>
      <point x="88" y="281"/>
      <point x="49" y="239"/>
      <point x="49" y="187" type="curve" smooth="yes"/>
      <point x="49" y="94" type="line" smooth="yes"/>
      <point x="49" y="43"/>
      <point x="88" y="1"/>
      <point x="139" y="0" type="curve"/>
      <point x="377" y="0" type="line"/>
      <point x="377" y="0"/>
      <point x="379" y="1"/>
      <point x="379" y="3" type="curve" smooth="yes"/>
      <point x="379" y="400" type="line" smooth="yes"/>
      <point x="379" y="452"/>
      <point x="337" y="494"/>
      <point x="285" y="494" type="curve" smooth="yes"/>
      <point x="149" y="494" type="line" smooth="yes"/>
      <point x="98" y="494"/>
      <point x="59" y="452"/>
      <point x="59" y="400" type="curve" smooth="yes"/>
      <point x="59" y="353" type="line" smooth="yes"/>
      <point x="59" y="351"/>
      <point x="61" y="349"/>
      <point x="62" y="349" type="curve"/>
      <point x="155" y="349" type="line" smooth="yes"/>
      <point x="157" y="349"/>
      <point x="159" y="351"/>
      <point x="159" y="353" type="curve" smooth="yes"/>
      <point x="159" y="413" type="line"/>
      <point x="159" y="414"/>
      <point x="160" y="416"/>
      <point x="162" y="416" type="curve" smooth="yes"/>
      <point x="271" y="416" type="line" smooth="yes"/>
      <point x="273" y="416"/>
      <point x="274" y="414"/>
      <point x="274" y="413" type="curve"/>
      <point x="274" y="281" type="line"/>
    </contour>
    <contour>
      <point x="274" y="86" type="line" smooth="yes"/>
      <point x="274" y="84"/>
      <point x="273" y="82"/>
      <point x="271" y="82" type="curve" smooth="yes"/>
      <point x="152" y="82" type="line" smooth="yes"/>
      <point x="150" y="82"/>
      <point x="149" y="84"/>
      <point x="149" y="86" type="curve" smooth="yes"/>
      <point x="149" y="207" type="line"/>
      <point x="149" y="208"/>
      <point x="150" y="210"/>
      <point x="152" y="210" type="curve" smooth="yes"/>
      <point x="274" y="210" type="line"/>
    </contour>
    <contour>
      <point x="213" y="477" type="move" name="Top"/>
    </contour>
  </outline>
</glyph>
<glyph name="d" format="1">
  <advance width="442"/>
  <unicode hex="0064"/>
  <outline>
    <contour>
      <point x="157" y="403" type="line"/>
      <point x="157" y="405"/>
      <point x="158" y="406"/>
      <point x="160" y="406" type="curve" smooth="yes"/>
      <point x="277" y="406" type="line" smooth="yes"/>
      <point x="279" y="406"/>
      <point x="281" y="405"/>
      <point x="281" y="404" type="curve"/>
      <point x="281" y="83" type="line" smooth="yes"/>
      <point x="281" y="81"/>
      <point x="279" y="81"/>
      <point x="277" y="80" type="curve"/>
      <point x="160" y="80" type="line"/>
      <point x="158" y="81"/>
      <point x="157" y="82"/>
      <point x="157" y="84" type="curve"/>
    </contour>
    <contour>
      <point x="382" y="0" type="line"/>
      <point x="384" y="0"/>
      <point x="385" y="1"/>
      <point x="385" y="3" type="curve" smooth="yes"/>
      <point x="385" y="18"/>
      <point x="386" y="124"/>
      <point x="386" y="725" type="curve" smooth="yes"/>
      <point x="386" y="727"/>
      <point x="384" y="728"/>
      <point x="382" y="728" type="curve" smooth="yes"/>
      <point x="285" y="728" type="line" smooth="yes"/>
      <point x="283" y="728"/>
      <point x="282" y="727"/>
      <point x="281" y="725" type="curve"/>
      <point x="281" y="494" type="line"/>
      <point x="144" y="494" type="line" smooth="yes"/>
      <point x="92" y="494"/>
      <point x="52" y="452"/>
      <point x="52" y="400" type="curve" smooth="yes"/>
      <point x="52" y="94" type="line" smooth="yes"/>
      <point x="52" y="42"/>
      <point x="92" y="0"/>
      <point x="144" y="0" type="curve"/>
    </contour>
  </outline>
</glyph>
<glyph name="e" format="1">
  <advance width="426"/>
  <unicode hex="0065"/>
  <outline>
    <contour>
      <point x="288" y="494" type="curve"/>
      <point x="146" y="494" type="line" smooth="yes"/>
      <point x="94" y="494"/>
      <point x="52" y="452"/>
      <point x="52" y="400" type="curve" smooth="yes"/>
      <point x="52" y="94" type="line" smooth="yes"/>
      <point x="52" y="42"/>
      <point x="94" y="0"/>
      <point x="146" y="0" type="curve" smooth="yes"/>
      <point x="288" y="0" type="line" smooth="yes"/>
      <point x="339" y="0"/>
      <point x="378" y="42"/>
      <point x="378" y="94" type="curve" smooth="yes"/>
      <point x="378" y="142" type="line" smooth="yes"/>
      <point x="378" y="144"/>
      <point x="376" y="146"/>
      <point x="375" y="146" type="curve"/>
      <point x="282" y="146" type="line" smooth="yes"/>
      <point x="280" y="146"/>
      <point x="278" y="144"/>
      <point x="278" y="142" type="curve" smooth="yes"/>
      <point x="278" y="81" type="line"/>
      <point x="278" y="80"/>
      <point x="277" y="78"/>
      <point x="275" y="78" type="curve" smooth="yes"/>
      <point x="160" y="78" type="line" smooth="yes"/>
      <point x="158" y="78"/>
      <point x="157" y="80"/>
      <point x="157" y="81" type="curve"/>
      <point x="157" y="209" type="line"/>
      <point x="374" y="209" type="line" smooth="yes"/>
      <point x="376" y="209"/>
      <point x="378" y="210"/>
      <point x="378" y="212" type="curve" smooth="yes"/>
      <point x="378" y="400" type="line" smooth="yes"/>
      <point x="378" y="451"/>
      <point x="339" y="493"/>
    </contour>
    <contour>
      <point x="157" y="407" type="line" smooth="yes"/>
      <point x="157" y="409"/>
      <point x="158" y="411"/>
      <point x="160" y="411" type="curve" smooth="yes"/>
      <point x="275" y="411" type="line" smooth="yes"/>
      <point x="277" y="411"/>
      <point x="278" y="409"/>
      <point x="278" y="407" type="curve" smooth="yes"/>
      <point x="278" y="281" type="line"/>
      <point x="157" y="281" type="line"/>
    </contour>
    <contour>
      <point x="211" y="525" type="move" name="Top"/>
    </contour>
  </outline>
</glyph>
<glyph name="g" format="1">
  <advance width="416"/>
  <unicode hex="0067"/>
  <outline>
    <contour>
      <point x="52" y="91" type="line"/>
      <point x="53" y="42"/>
      <point x="94" y="4"/>
      <point x="143" y="0" type="curve"/>
      <point x="259" y="0" type="line"/>
      <point x="259" y="-110" type="line"/>
      <point x="259" y="-111"/>
      <point x="258" y="-113"/>
      <point x="256" y="-113" type="curve" smooth="yes"/>
      <point x="155" y="-113" type="line" smooth="yes"/>
      <point x="153" y="-113"/>
      <point x="152" y="-111"/>
      <point x="152" y="-110" type="curve"/>
      <point x="152" y="-68" type="line" smooth="yes"/>
      <point x="152" y="-66"/>
      <point x="150" y="-64"/>
      <point x="148" y="-64" type="curve" smooth="yes"/>
      <point x="55" y="-64" type="line"/>
      <point x="54" y="-64"/>
      <point x="52" y="-66"/>
      <point x="52" y="-68" type="curve" smooth="yes"/>
      <point x="52" y="-104" type="line" smooth="yes"/>
      <point x="52" y="-156"/>
      <point x="91" y="-198"/>
      <point x="142" y="-198" type="curve" smooth="yes"/>
      <point x="270" y="-198" type="line" smooth="yes"/>
      <point x="322" y="-198"/>
      <point x="364" y="-156"/>
      <point x="364" y="-104" type="curve" smooth="yes"/>
      <point x="364" y="400" type="line" smooth="yes"/>
      <point x="364" y="452"/>
      <point x="322" y="494"/>
      <point x="270" y="494" type="curve" smooth="yes"/>
      <point x="142" y="494" type="line"/>
      <point x="91" y="493"/>
      <point x="52" y="451"/>
      <point x="52" y="400" type="curve" smooth="yes"/>
    </contour>
    <contour>
      <point x="259" y="88" type="line"/>
      <point x="157" y="88" type="line"/>
      <point x="157" y="402" type="line" smooth="yes"/>
      <point x="157" y="404"/>
      <point x="158" y="406"/>
      <point x="160" y="406" type="curve" smooth="yes"/>
      <point x="256" y="406" type="line" smooth="yes"/>
      <point x="258" y="406"/>
      <point x="259" y="404"/>
      <point x="259" y="402" type="curve" smooth="yes"/>
    </contour>
  </outline>
</glyph>
<glyph name="h" format="1">
  <advance width="444"/>
  <unicode hex="0068"/>
  <outline>
    <contour>
      <point x="61" y="728" type="line" smooth="yes"/>
      <point x="59" y="728"/>
      <point x="57" y="727"/>
      <point x="57" y="725" type="curve" smooth="yes"/>
      <point x="56" y="3" type="line" smooth="yes"/>
      <point x="56" y="1"/>
      <point x="57" y="0"/>
      <point x="59" y="0" type="curve" smooth="yes"/>
      <point x="158" y="0" type="line" smooth="yes"/>
      <point x="160" y="0"/>
      <point x="161" y="1"/>
      <point x="161" y="3" type="curve" smooth="yes"/>
      <point x="162" y="404" type="line"/>
      <point x="162" y="405"/>
      <point x="163" y="406"/>
      <point x="164" y="406" type="curve"/>
      <point x="284" y="406" type="line"/>
      <point x="285" y="406"/>
      <point x="287" y="404"/>
      <point x="287" y="403" type="curve"/>
      <point x="287" y="3" type="line" smooth="yes"/>
      <point x="287" y="1"/>
      <point x="288" y="0"/>
      <point x="290" y="0" type="curve" smooth="yes"/>
      <point x="389" y="0" type="line" smooth="yes"/>
      <point x="391" y="0"/>
      <point x="392" y="1"/>
      <point x="392" y="3" type="curve" smooth="yes"/>
      <point x="392" y="399" type="line" smooth="yes"/>
      <point x="392" y="452"/>
      <point x="350" y="494"/>
      <point x="298" y="494" type="curve" smooth="yes"/>
      <point x="162" y="494" type="line"/>
      <point x="162" y="725" type="line"/>
      <point x="161" y="727"/>
      <point x="160" y="728"/>
      <point x="158" y="728" type="curve" smooth="yes"/>
    </contour>
  </outline>
</glyph>
<glyph name="n" format="1">
  <advance width="440"/>
  <unicode hex="006E"/>
  <outline>
    <contour>
      <point x="145" y="494" type="line"/>
      <point x="146" y="494" type="line"/>
      <point x="94" y="494"/>
      <point x="52" y="452"/>
      <point x="52" y="399" type="curve" smooth="yes"/>
      <point x="52" y="3" type="line" smooth="yes"/>
      <point x="52" y="1"/>
      <point x="53" y="0"/>
      <point x="55" y="0" type="curve" smooth="yes"/>
      <point x="154" y="0" type="line" smooth="yes"/>
      <point x="156" y="0"/>
      <point x="157" y="1"/>
      <point x="157" y="3" type="curve" smooth="yes"/>
      <point x="157" y="403" type="line"/>
      <point x="157" y="404"/>
      <point x="159" y="406"/>
      <point x="160" y="406" type="curve"/>
      <point x="160" y="406" type="line"/>
      <point x="160" y="406" type="line"/>
      <point x="280" y="406" type="line"/>
      <point x="280" y="406" type="line"/>
      <point x="280" y="406" type="line"/>
      <point x="281" y="406"/>
      <point x="283" y="404"/>
      <point x="283" y="403" type="curve"/>
      <point x="283" y="3" type="line" smooth="yes"/>
      <point x="283" y="1"/>
      <point x="284" y="0"/>
      <point x="286" y="0" type="curve" smooth="yes"/>
      <point x="385" y="0" type="line" smooth="yes"/>
      <point x="387" y="0"/>
      <point x="388" y="1"/>
      <point x="388" y="3" type="curve" smooth="yes"/>
      <point x="388" y="399" type="line" smooth="yes"/>
      <point x="388" y="452"/>
      <point x="346" y="494"/>
      <point x="294" y="494" type="curve" smooth="yes"/>
    </contour>
    <contour>
      <point x="219" y="474" type="move" name="Top"/>
    </contour>
  </outline>
</glyph>
<glyph name="o" format="1">
  <advance width="427"/>
  <unicode hex="006F"/>
  <outline>
    <contour>
      <point x="270" y="88" type="line" smooth="yes"/>
      <point x="270" y="86"/>
      <point x="269" y="85"/>
      <point x="267" y="84" type="curve"/>
      <point x="267" y="84" type="line"/>
      <point x="161" y="84" type="line"/>
      <point x="161" y="84" type="line"/>
      <point x="159" y="85"/>
      <point x="157" y="86"/>
      <point x="157" y="88" type="curve" smooth="yes"/>
      <point x="157" y="408" type="line" smooth="yes"/>
      <point x="157" y="410"/>
      <point x="159" y="411"/>
      <point x="161" y="411" type="curve"/>
      <point x="161" y="411" type="line"/>
      <point x="161" y="411" type="line"/>
      <point x="267" y="411" type="line"/>
      <point x="267" y="411" type="line"/>
      <point x="267" y="411" type="line"/>
      <point x="269" y="411"/>
      <point x="270" y="410"/>
      <point x="270" y="408" type="curve" smooth="yes"/>
    </contour>
    <contour>
      <point x="143" y="494" type="line" smooth="yes"/>
      <point x="91" y="494"/>
      <point x="52" y="452"/>
      <point x="52" y="400" type="curve" smooth="yes"/>
      <point x="52" y="94" type="line" smooth="yes"/>
      <point x="52" y="42"/>
      <point x="91" y="0"/>
      <point x="143" y="0" type="curve"/>
      <point x="142" y="0" type="line"/>
      <point x="284" y="0" type="line"/>
      <point x="283" y="0" type="line"/>
      <point x="335" y="0"/>
      <point x="375" y="42"/>
      <point x="375" y="94" type="curve" smooth="yes"/>
      <point x="375" y="400" type="line" smooth="yes"/>
      <point x="375" y="452"/>
      <point x="335" y="494"/>
      <point x="283" y="494" type="curve" smooth="yes"/>
    </contour>
    <contour>
      <point x="209" y="479" type="move" name="Top"/>
    </contour>
  </outline>
</glyph>
<glyph name="p" format="1">
  <advance width="442"/>
  <unicode hex="0070"/>
  <outline>
    <contour>
      <point x="285" y="88" type="line" smooth="yes"/>
      <point x="285" y="86"/>
      <point x="284" y="85"/>
      <point x="282" y="85" type="curve" smooth="yes"/>
      <point x="165" y="85" type="line" smooth="yes"/>
      <point x="163" y="85"/>
      <point x="161" y="86"/>
      <point x="161" y="87" type="curve"/>
      <point x="161" y="403" type="line" smooth="yes"/>
      <point x="161" y="405"/>
      <point x="163" y="405"/>
      <point x="165" y="406" type="curve"/>
      <point x="282" y="406" type="line"/>
      <point x="284" y="405"/>
      <point x="285" y="404"/>
      <point x="285" y="402" type="curve" smooth="yes"/>
    </contour>
    <contour>
      <point x="60" y="494" type="line" smooth="yes"/>
      <point x="58" y="494"/>
      <point x="57" y="493"/>
      <point x="57" y="491" type="curve" smooth="yes"/>
      <point x="57" y="476"/>
      <point x="56" y="406"/>
      <point x="56" y="-195" type="curve" smooth="yes"/>
      <point x="56" y="-197"/>
      <point x="58" y="-198"/>
      <point x="60" y="-198" type="curve" smooth="yes"/>
      <point x="157" y="-198" type="line" smooth="yes"/>
      <point x="159" y="-198"/>
      <point x="160" y="-197"/>
      <point x="161" y="-195" type="curve"/>
      <point x="161" y="0" type="line"/>
      <point x="298" y="0" type="line" smooth="yes"/>
      <point x="350" y="0"/>
      <point x="390" y="42"/>
      <point x="390" y="94" type="curve" smooth="yes"/>
      <point x="390" y="400" type="line" smooth="yes"/>
      <point x="390" y="452"/>
      <point x="350" y="494"/>
      <point x="298" y="494" type="curve" smooth="yes"/>
    </contour>
  </outline>
</glyph>
<glyph name="r" format="1">
  <advance width="313"/>
  <unicode hex="0072"/>
  <outline>
    <contour>
      <point x="147" y="494" type="curve"/>
      <point x="289" y="494" type="line" smooth="yes"/>
      <point x="291" y="494"/>
      <point x="292" y="493"/>
      <point x="292" y="491" type="curve" smooth="yes"/>
      <point x="292" y="409" type="line" smooth="yes"/>
      <point x="292" y="407"/>
      <point x="291" y="406"/>
      <point x="289" y="406" type="curve" smooth="yes"/>
      <point x="162" y="406" type="line"/>
      <point x="161" y="406"/>
      <point x="159" y="404"/>
      <point x="159" y="403" type="curve"/>
      <point x="159" y="3" type="line" smooth="yes"/>
      <point x="159" y="1"/>
      <point x="158" y="0"/>
      <point x="156" y="0" type="curve" smooth="yes"/>
      <point x="57" y="0" type="line" smooth="yes"/>
      <point x="55" y="0"/>
      <point x="54" y="1"/>
      <point x="54" y="3" type="curve" smooth="yes"/>
      <point x="54" y="399" type="line" smooth="yes"/>
      <point x="54" y="452"/>
      <point x="96" y="494"/>
    </contour>
  </outline>
</glyph>
<glyph name="s" format="1">
  <advance width="430"/>
  <unicode hex="0073"/>
  <outline>
    <contour>
      <point x="168" y="338" type="curve"/>
      <point x="165" y="338"/>
      <point x="165" y="346"/>
      <point x="165" y="346" type="curve"/>
      <point x="165" y="414" type="line"/>
      <point x="165" y="415"/>
      <point x="167" y="416"/>
      <point x="167" y="416" type="curve"/>
      <point x="271" y="416" type="line"/>
      <point x="272" y="416"/>
      <point x="273" y="415"/>
      <point x="273" y="414" type="curve"/>
      <point x="273" y="354" type="line"/>
      <point x="373" y="354" type="line"/>
      <point x="373" y="412" type="line"/>
      <point x="373" y="462"/>
      <point x="349" y="494"/>
      <point x="301" y="494" type="curve"/>
      <point x="135" y="494" type="line"/>
      <point x="85" y="494"/>
      <point x="64" y="462"/>
      <point x="64" y="413" type="curve"/>
      <point x="64" y="295" type="line"/>
      <point x="64" y="287"/>
      <point x="67" y="279"/>
      <point x="75" y="275" type="curve" smooth="yes"/>
      <point x="80" y="272"/>
      <point x="272" y="175"/>
      <point x="272" y="175" type="curve"/>
      <point x="274" y="174"/>
      <point x="275" y="173"/>
      <point x="275" y="171" type="curve"/>
      <point x="275" y="83" type="line"/>
      <point x="275" y="81"/>
      <point x="274" y="81"/>
      <point x="272" y="81" type="curve"/>
      <point x="155" y="81" type="line"/>
      <point x="154" y="81"/>
      <point x="153" y="81"/>
      <point x="153" y="83" type="curve"/>
      <point x="153" y="164" type="line"/>
      <point x="53" y="164" type="line"/>
      <point x="53" y="93" type="line"/>
      <point x="53" y="43"/>
      <point x="95" y="0"/>
      <point x="145" y="0" type="curve"/>
      <point x="289" y="0" type="line"/>
      <point x="338" y="0"/>
      <point x="380" y="43"/>
      <point x="380" y="93" type="curve"/>
      <point x="381" y="199" type="line"/>
      <point x="381" y="218"/>
      <point x="370" y="236"/>
      <point x="351" y="247" type="curve" smooth="yes"/>
      <point x="342" y="252"/>
      <point x="168" y="338"/>
    </contour>
  </outline>
</glyph>
<glyph name="t" format="1">
  <advance width="291"/>
  <unicode hex="0074"/>
  <outline>
    <contour>
      <point x="93" y="494" type="line"/>
      <point x="21" y="494" type="line"/>
      <point x="19" y="494"/>
      <point x="18" y="492"/>
      <point x="18" y="490" type="curve"/>
      <point x="18" y="414" type="line"/>
      <point x="18" y="412"/>
      <point x="19" y="411"/>
      <point x="21" y="410" type="curve"/>
      <point x="93" y="410" type="line"/>
      <point x="93" y="4" type="line"/>
      <point x="93" y="2"/>
      <point x="95" y="0"/>
      <point x="97" y="0" type="curve"/>
      <point x="194" y="0" type="line"/>
      <point x="196" y="0"/>
      <point x="197" y="2"/>
      <point x="198" y="4" type="curve"/>
      <point x="198" y="410" type="line"/>
      <point x="270" y="410" type="line"/>
      <point x="272" y="411"/>
      <point x="273" y="412"/>
      <point x="273" y="414" type="curve"/>
      <point x="273" y="490" type="line"/>
      <point x="273" y="492"/>
      <point x="272" y="494"/>
      <point x="270" y="494" type="curve"/>
      <point x="198" y="494" type="line"/>
      <point x="198" y="611" type="line"/>
      <point x="197" y="613"/>
      <point x="196" y="614"/>
      <point x="194" y="614" type="curve"/>
      <point x="97" y="614" type="line"/>
      <point x="95" y="614"/>
      <point x="93" y="613"/>
      <point x="93" y="611" type="curve"/>
    </contour>
  </outline>
</glyph>
<glyph name="v" format="1">
  <advance width="424"/>
  <unicode hex="0076"/>
  <outline>
    <contour>
      <point x="52" y="156" type="line" smooth="yes"/>
      <point x="52" y="153"/>
      <point x="53" y="145"/>
      <point x="53" y="143" type="curve" smooth="yes"/>
      <point x="63" y="114"/>
      <point x="150" y="0"/>
      <point x="212" y="0" type="curve" smooth="yes"/>
      <point x="273" y="0"/>
      <point x="358" y="112"/>
      <point x="370" y="143" type="curve" smooth="yes"/>
      <point x="371" y="145"/>
      <point x="372" y="153"/>
      <point x="372" y="156" type="curve" smooth="yes"/>
      <point x="372" y="490" type="line" smooth="yes"/>
      <point x="372" y="492"/>
      <point x="370" y="494"/>
      <point x="369" y="494" type="curve"/>
      <point x="270" y="494" type="line" smooth="yes"/>
      <point x="268" y="494"/>
      <point x="267" y="492"/>
      <point x="267" y="491" type="curve" smooth="yes"/>
      <point x="267" y="491"/>
      <point x="267" y="181"/>
      <point x="267" y="171" type="curve" smooth="yes"/>
      <point x="267" y="161"/>
      <point x="227" y="106"/>
      <point x="212" y="106" type="curve" smooth="yes"/>
      <point x="206" y="106"/>
      <point x="157" y="156"/>
      <point x="157" y="171" type="curve" smooth="yes"/>
      <point x="157" y="490" type="line" smooth="yes"/>
      <point x="157" y="492"/>
      <point x="156" y="494"/>
      <point x="154" y="494" type="curve" smooth="yes"/>
      <point x="56" y="494" type="line" smooth="yes"/>
      <point x="54" y="494"/>
      <point x="52" y="492"/>
      <point x="52" y="491" type="curve"/>
    </contour>
  </outline>
</glyph>
<glyph name="w" format="1">
  <advance width="614"/>
  <unicode hex="0077"/>
  <outline>
    <contour>
      <point x="52" y="95" type="line"/>
      <point x="52" y="43"/>
      <point x="92" y="0"/>
      <point x="144" y="0" type="curve" smooth="yes"/>
      <point x="226" y="0" type="line"/>
      <point x="287" y="1"/>
      <point x="305" y="48"/>
      <point x="308" y="67" type="curve"/>
      <point x="307" y="48"/>
      <point x="315" y="0"/>
      <point x="392" y="0" type="curve" smooth="yes"/>
      <point x="468" y="0" type="line" smooth="yes"/>
      <point x="520" y="0"/>
      <point x="562" y="43"/>
      <point x="562" y="95" type="curve" smooth="yes"/>
      <point x="562" y="491" type="line" smooth="yes"/>
      <point x="562" y="493"/>
      <point x="560" y="494"/>
      <point x="558" y="494" type="curve" smooth="yes"/>
      <point x="461" y="494" type="line" smooth="yes"/>
      <point x="459" y="494"/>
      <point x="457" y="493"/>
      <point x="457" y="491" type="curve" smooth="yes"/>
      <point x="457" y="99" type="line" smooth="yes"/>
      <point x="457" y="93"/>
      <point x="455" y="90"/>
      <point x="448" y="90" type="curve" smooth="yes"/>
      <point x="396" y="90" type="line" smooth="yes"/>
      <point x="375" y="90"/>
      <point x="352" y="100"/>
      <point x="352" y="126" type="curve" smooth="yes"/>
      <point x="352" y="491" type="line" smooth="yes"/>
      <point x="352" y="493"/>
      <point x="350" y="494"/>
      <point x="348" y="494" type="curve" smooth="yes"/>
      <point x="266" y="494" type="line" smooth="yes"/>
      <point x="264" y="494"/>
      <point x="262" y="493"/>
      <point x="262" y="491" type="curve" smooth="yes"/>
      <point x="262" y="126" type="line" smooth="yes"/>
      <point x="262" y="98"/>
      <point x="243" y="90"/>
      <point x="219" y="90" type="curve" smooth="yes"/>
      <point x="165" y="90" type="line" smooth="yes"/>
      <point x="158" y="90"/>
      <point x="157" y="92"/>
      <point x="157" y="99" type="curve" smooth="yes"/>
      <point x="157" y="491" type="line" smooth="yes"/>
      <point x="157" y="493"/>
      <point x="155" y="494"/>
      <point x="153" y="494" type="curve" smooth="yes"/>
      <point x="56" y="494" type="line" smooth="yes"/>
      <point x="54" y="494"/>
      <point x="52" y="493"/>
      <point x="52" y="491" type="curve" smooth="yes"/>
    </contour>
  </outline>
</glyph>
<glyph name="braceleft" format="1">
  <advance width="295"/>
  <unicode hex="007B"/>
  <outline>
    <contour>
      <point x="138" y="419" type="line"/>
      <point x="138" y="419"/>
      <point x="232" y="386"/>
      <point x="228" y="386" type="curve"/>
      <point x="228" y="376" type="line"/>
      <point x="233" y="376"/>
      <point x="138" y="339"/>
      <point x="138" y="339" type="curve"/>
      <point x="138" y="126" type="line"/>
      <point x="138" y="55"/>
      <point x="214" y="22"/>
      <point x="242" y="22" type="curve" smooth="yes"/>
      <point x="244" y="22"/>
      <point x="245" y="20"/>
      <point x="245" y="18" type="curve" smooth="yes"/>
      <point x="245" y="4" type="line" smooth="yes"/>
      <point x="245" y="2"/>
      <point x="244" y="0"/>
      <point x="242" y="0" type="curve" smooth="yes"/>
      <point x="138" y="0" type="line"/>
      <point x="78" y="1"/>
      <point x="50" y="85"/>
      <point x="50" y="128" type="curve" smooth="yes"/>
      <point x="50" y="336" type="line"/>
      <point x="50" y="339"/>
      <point x="52" y="345"/>
      <point x="57" y="345" type="curve"/>
      <point x="57" y="345"/>
      <point x="92" y="370"/>
      <point x="101" y="370" type="curve"/>
      <point x="151" y="379" type="line"/>
      <point x="101" y="388" type="line"/>
      <point x="91" y="388"/>
      <point x="56" y="420"/>
      <point x="56" y="420" type="curve"/>
      <point x="51" y="421"/>
      <point x="50" y="425"/>
      <point x="50" y="430" type="curve"/>
      <point x="50" y="588" type="line" smooth="yes"/>
      <point x="50" y="639"/>
      <point x="93" y="700"/>
      <point x="145" y="700" type="curve" smooth="yes"/>
      <point x="145" y="700"/>
      <point x="234" y="700"/>
      <point x="236" y="700" type="curve" smooth="yes"/>
      <point x="238" y="700"/>
      <point x="239" y="698"/>
      <point x="239" y="696" type="curve" smooth="yes"/>
      <point x="239" y="682" type="line" smooth="yes"/>
      <point x="239" y="680"/>
      <point x="238" y="678"/>
      <point x="236" y="678" type="curve" smooth="yes"/>
      <point x="225" y="678"/>
      <point x="138" y="654"/>
      <point x="138" y="588" type="curve" smooth="yes"/>
    </contour>
  </outline>
</glyph>
<glyph name="bar" format="1">
  <advance width="189"/>
  <unicode hex="007C"/>
  <outline>
    <contour>
      <point x="136" y="700" type="line"/>
      <point x="135" y="703"/>
      <point x="133" y="703"/>
      <point x="131" y="703" type="curve" smooth="yes"/>
      <point x="54" y="703" type="line" smooth="yes"/>
      <point x="52" y="703"/>
      <point x="50" y="702"/>
      <point x="50" y="700" type="curve" smooth="yes"/>
      <point x="52" y="3" type="line"/>
      <point x="52" y="1"/>
      <point x="53" y="0"/>
      <point x="56" y="0" type="curve" smooth="yes"/>
      <point x="136" y="0" type="line" smooth="yes"/>
      <point x="139" y="0"/>
      <point x="138" y="1"/>
      <point x="139" y="3" type="curve" smooth="yes"/>
    </contour>
  </outline>
</glyph>
<glyph name="braceright" format="1">
  <advance width="295"/>
  <unicode hex="007D"/>
  <outline>
    <contour>
      <point x="157" y="588" type="line"/>
      <point x="157" y="654"/>
      <point x="70" y="678"/>
      <point x="59" y="678" type="curve" smooth="yes"/>
      <point x="57" y="678"/>
      <point x="56" y="680"/>
      <point x="56" y="682" type="curve" smooth="yes"/>
      <point x="56" y="696" type="line" smooth="yes"/>
      <point x="56" y="698"/>
      <point x="57" y="700"/>
      <point x="59" y="700" type="curve" smooth="yes"/>
      <point x="61" y="700"/>
      <point x="150" y="700"/>
      <point x="150" y="700" type="curve" smooth="yes"/>
      <point x="202" y="700"/>
      <point x="245" y="639"/>
      <point x="245" y="588" type="curve" smooth="yes"/>
      <point x="245" y="430" type="line" smooth="yes"/>
      <point x="245" y="425"/>
      <point x="244" y="421"/>
      <point x="239" y="420" type="curve"/>
      <point x="239" y="420"/>
      <point x="204" y="388"/>
      <point x="194" y="388" type="curve"/>
      <point x="144" y="379" type="line"/>
      <point x="194" y="370" type="line"/>
      <point x="203" y="370"/>
      <point x="238" y="345"/>
      <point x="238" y="345" type="curve" smooth="yes"/>
      <point x="243" y="345"/>
      <point x="245" y="339"/>
      <point x="245" y="336" type="curve" smooth="yes"/>
      <point x="245" y="128" type="line" smooth="yes"/>
      <point x="245" y="85"/>
      <point x="217" y="1"/>
      <point x="157" y="0" type="curve"/>
      <point x="53" y="0" type="line" smooth="yes"/>
      <point x="51" y="0"/>
      <point x="50" y="2"/>
      <point x="50" y="4" type="curve" smooth="yes"/>
      <point x="50" y="18" type="line" smooth="yes"/>
      <point x="50" y="20"/>
      <point x="51" y="22"/>
      <point x="53" y="22" type="curve" smooth="yes"/>
      <point x="81" y="22"/>
      <point x="157" y="55"/>
      <point x="157" y="126" type="curve" smooth="yes"/>
      <point x="157" y="339" type="line"/>
      <point x="157" y="339"/>
      <point x="62" y="376"/>
      <point x="67" y="376" type="curve"/>
      <point x="67" y="386" type="line"/>
      <point x="63" y="386"/>
      <point x="157" y="419"/>
      <point x="157" y="419" type="curve"/>
    </contour>
  </outline>
</glyph>
<glyph name="cent" format="1">
  <advance width="413"/>
  <unicode hex="00A2"/>
  <outline>
    <contour>
      <point x="243" y="540" type="line"/>
      <point x="242" y="543"/>
      <point x="240" y="543"/>
      <point x="238" y="543" type="curve"/>
      <point x="181" y="543" type="line"/>
      <point x="179" y="543"/>
      <point x="177" y="542"/>
      <point x="177" y="540" type="curve"/>
      <point x="177" y="426" type="line"/>
      <point x="243" y="426" type="line"/>
    </contour>
    <contour>
      <point x="273" y="494" type="line"/>
      <point x="145" y="494" type="line"/>
      <point x="146" y="494" type="line"/>
      <point x="94" y="494"/>
      <point x="52" y="452"/>
      <point x="52" y="400" type="curve" smooth="yes"/>
      <point x="52" y="94" type="line" smooth="yes"/>
      <point x="52" y="42"/>
      <point x="94" y="0"/>
      <point x="146" y="0" type="curve"/>
      <point x="145" y="0" type="line"/>
      <point x="273" y="0" type="line"/>
      <point x="272" y="0" type="line"/>
      <point x="324" y="0"/>
      <point x="363" y="42"/>
      <point x="363" y="94" type="curve" smooth="yes"/>
      <point x="363" y="178" type="line" smooth="yes"/>
      <point x="363" y="180"/>
      <point x="361" y="182"/>
      <point x="360" y="182" type="curve"/>
      <point x="267" y="182" type="line" smooth="yes"/>
      <point x="265" y="182"/>
      <point x="263" y="180"/>
      <point x="263" y="178" type="curve" smooth="yes"/>
      <point x="263" y="93" type="line"/>
      <point x="263" y="92"/>
      <point x="262" y="90"/>
      <point x="260" y="90" type="curve"/>
      <point x="260" y="90" type="line"/>
      <point x="260" y="90" type="line"/>
      <point x="160" y="90" type="line"/>
      <point x="160" y="90" type="line"/>
      <point x="160" y="90" type="line"/>
      <point x="158" y="90"/>
      <point x="157" y="92"/>
      <point x="157" y="93" type="curve"/>
      <point x="157" y="402" type="line" smooth="yes"/>
      <point x="157" y="404"/>
      <point x="158" y="406"/>
      <point x="160" y="406" type="curve"/>
      <point x="160" y="406" type="line"/>
      <point x="160" y="406" type="line"/>
      <point x="260" y="406" type="line"/>
      <point x="260" y="406" type="line"/>
      <point x="260" y="406" type="line"/>
      <point x="262" y="406"/>
      <point x="263" y="404"/>
      <point x="263" y="402" type="curve" smooth="yes"/>
      <point x="263" y="331" type="line" smooth="yes"/>
      <point x="263" y="329"/>
      <point x="265" y="328"/>
      <point x="266" y="328" type="curve"/>
      <point x="359" y="328" type="line" smooth="yes"/>
      <point x="361" y="328"/>
      <point x="363" y="329"/>
      <point x="363" y="331" type="curve" smooth="yes"/>
      <point x="363" y="400" type="line" smooth="yes"/>
      <point x="363" y="452"/>
      <point x="324" y="494"/>
      <point x="272" y="494" type="curve"/>
    </contour>
    <contour>
      <point x="243" y="540" type="line"/>
      <point x="242" y="543"/>
      <point x="240" y="543"/>
      <point x="238" y="543" type="curve" smooth="yes"/>
      <point x="181" y="543" type="line" smooth="yes"/>
      <point x="179" y="543"/>
      <point x="177" y="542"/>
      <point x="177" y="540" type="curve" smooth="yes"/>
      <point x="177" y="426" type="line"/>
      <point x="243" y="426" type="line"/>
    </contour>
    <contour>
      <point x="177" y="-53" type="line"/>
      <point x="178" y="-56"/>
      <point x="180" y="-56"/>
      <point x="182" y="-56" type="curve" smooth="yes"/>
      <point x="239" y="-56" type="line" smooth="yes"/>
      <point x="241" y="-56"/>
      <point x="243" y="-55"/>
      <point x="243" y="-53" type="curve" smooth="yes"/>
      <point x="243" y="51" type="line"/>
      <point x="177" y="51" type="line"/>
      <point x="178" y="-66"/>
      <point x="180" y="-56"/>
      <point x="182" y="-56" type="curve" smooth="yes"/>
      <point x="239" y="-56" type="line" smooth="yes"/>
      <point x="241" y="-56"/>
      <point x="243" y="-55"/>
      <point x="243" y="-53" type="curve" smooth="yes"/>
      <point x="243" y="-15"/>
      <point x="243" y="13"/>
      <point x="243" y="51" type="curve"/>
      <point x="177" y="51" type="line"/>
    </contour>
  </outline>
</glyph>
<glyph name="currency" format="1">
  <advance width="461"/>
  <unicode hex="00A4"/>
  <outline>
    <contour>
      <point x="29" y="505" type="line"/>
      <point x="28" y="504"/>
      <point x="27" y="502"/>
      <point x="29" y="500" type="curve"/>
      <point x="89" y="440" type="line"/>
      <point x="84" y="428"/>
      <point x="80" y="414"/>
      <point x="80" y="400" type="curve"/>
      <point x="80" y="254" type="line"/>
      <point x="80" y="239"/>
      <point x="84" y="225"/>
      <point x="90" y="212" type="curve"/>
      <point x="34" y="157" type="line"/>
      <point x="33" y="156"/>
      <point x="33" y="153"/>
      <point x="34" y="152" type="curve"/>
      <point x="70" y="116" type="line"/>
      <point x="71" y="115"/>
      <point x="73" y="116"/>
      <point x="75" y="116" type="curve"/>
      <point x="131" y="172" type="line"/>
      <point x="142" y="167"/>
      <point x="154" y="164"/>
      <point x="166" y="164" type="curve"/>
      <point x="292" y="164" type="line"/>
      <point x="305" y="164"/>
      <point x="317" y="167"/>
      <point x="327" y="172" type="curve"/>
      <point x="378" y="121" type="line"/>
      <point x="379" y="120"/>
      <point x="382" y="120"/>
      <point x="383" y="121" type="curve"/>
      <point x="419" y="157" type="line"/>
      <point x="420" y="158"/>
      <point x="419" y="160"/>
      <point x="419" y="162" type="curve"/>
      <point x="369" y="212" type="line"/>
      <point x="375" y="225"/>
      <point x="378" y="239"/>
      <point x="378" y="254" type="curve"/>
      <point x="378" y="400" type="line"/>
      <point x="378" y="414"/>
      <point x="375" y="428"/>
      <point x="369" y="440" type="curve"/>
      <point x="424" y="495" type="line"/>
      <point x="425" y="498"/>
      <point x="425" y="499"/>
      <point x="424" y="500" type="curve"/>
      <point x="388" y="536" type="line"/>
      <point x="387" y="537"/>
      <point x="385" y="538"/>
      <point x="383" y="536" type="curve"/>
      <point x="329" y="481" type="line"/>
      <point x="318" y="487"/>
      <point x="305" y="490"/>
      <point x="292" y="490" type="curve"/>
      <point x="166" y="490" type="line"/>
      <point x="153" y="490"/>
      <point x="141" y="487"/>
      <point x="130" y="481" type="curve"/>
      <point x="70" y="541" type="line"/>
      <point x="67" y="542"/>
      <point x="66" y="542"/>
      <point x="65" y="541" type="curve"/>
    </contour>
    <contour>
      <point x="302" y="229" type="line"/>
      <point x="302" y="228"/>
      <point x="302" y="226"/>
      <point x="299" y="226" type="curve"/>
      <point x="160" y="226" type="line"/>
      <point x="159" y="226"/>
      <point x="157" y="228"/>
      <point x="157" y="229" type="curve"/>
      <point x="157" y="421" type="line"/>
      <point x="157" y="422"/>
      <point x="159" y="424"/>
      <point x="160" y="424" type="curve"/>
      <point x="299" y="424" type="line"/>
      <point x="302" y="424"/>
      <point x="302" y="422"/>
      <point x="302" y="421" type="curve"/>
    </contour>
  </outline>
</glyph>
<glyph name="yen" format="1">
  <advance width="438"/>
  <unicode hex="00A5"/>
  <outline>
    <contour>
      <point x="387" y="161" type="line"/>
      <point x="387" y="163"/>
      <point x="386" y="165"/>
      <point x="384" y="165" type="curve"/>
      <point x="277" y="165" type="line"/>
      <point x="277" y="209" type="line"/>
      <point x="384" y="209" type="line"/>
      <point x="386" y="210"/>
      <point x="387" y="211"/>
      <point x="387" y="213" type="curve"/>
      <point x="387" y="263" type="line"/>
      <point x="387" y="265"/>
      <point x="386" y="267"/>
      <point x="384" y="267" type="curve"/>
      <point x="277" y="267" type="line"/>
      <point x="277" y="278" type="line"/>
      <point x="328" y="321"/>
      <point x="379" y="403"/>
      <point x="379" y="413" type="curve"/>
      <point x="379" y="700" type="line"/>
      <point x="379" y="702"/>
      <point x="378" y="703"/>
      <point x="376" y="703" type="curve"/>
      <point x="282" y="703" type="line"/>
      <point x="280" y="703"/>
      <point x="278" y="702"/>
      <point x="278" y="700" type="curve"/>
      <point x="278" y="428" type="line"/>
      <point x="278" y="418"/>
      <point x="238" y="370"/>
      <point x="223" y="370" type="curve" smooth="yes"/>
      <point x="208" y="370"/>
      <point x="167" y="413"/>
      <point x="167" y="428" type="curve"/>
      <point x="167" y="700" type="line"/>
      <point x="167" y="702"/>
      <point x="166" y="703"/>
      <point x="164" y="703" type="curve"/>
      <point x="70" y="703" type="line"/>
      <point x="68" y="703"/>
      <point x="66" y="702"/>
      <point x="66" y="700" type="curve"/>
      <point x="66" y="413" type="line"/>
      <point x="66" y="401"/>
      <point x="117" y="319"/>
      <point x="168" y="278" type="curve"/>
      <point x="168" y="267" type="line"/>
      <point x="62" y="267" type="line"/>
      <point x="60" y="267"/>
      <point x="58" y="265"/>
      <point x="58" y="263" type="curve"/>
      <point x="58" y="213" type="line"/>
      <point x="58" y="211"/>
      <point x="60" y="210"/>
      <point x="62" y="209" type="curve"/>
      <point x="168" y="209" type="line"/>
      <point x="168" y="165" type="line"/>
      <point x="62" y="165" type="line"/>
      <point x="60" y="165"/>
      <point x="58" y="163"/>
      <point x="58" y="161" type="curve"/>
      <point x="58" y="111" type="line"/>
      <point x="58" y="109"/>
      <point x="60" y="108"/>
      <point x="62" y="107" type="curve"/>
      <point x="168" y="107" type="line"/>
      <point x="168" y="3" type="line"/>
      <point x="168" y="1"/>
      <point x="170" y="-1"/>
      <point x="172" y="-1" type="curve"/>
      <point x="274" y="-1" type="line"/>
      <point x="276" y="0"/>
      <point x="277" y="1"/>
      <point x="277" y="3" type="curve"/>
      <point x="277" y="107" type="line"/>
      <point x="384" y="107" type="line"/>
      <point x="386" y="108"/>
      <point x="387" y="109"/>
      <point x="387" y="111" type="curve"/>
    </contour>
  </outline>
</glyph>
<glyph name="brokenbar" format="1">
  <advance width="187"/>
  <unicode hex="00A6"/>
  <outline>
    <contour>
      <point x="135" y="700" type="line"/>
      <point x="134" y="703"/>
      <point x="132" y="703"/>
      <point x="130" y="703" type="curve"/>
      <point x="53" y="703" type="line"/>
      <point x="51" y="703"/>
      <point x="49" y="702"/>
      <point x="49" y="700" type="curve"/>
      <point x="51" y="433" type="line"/>
      <point x="51" y="431"/>
      <point x="52" y="430"/>
      <point x="55" y="430" type="curve"/>
      <point x="135" y="430" type="line"/>
      <point x="138" y="430"/>
      <point x="137" y="431"/>
      <point x="138" y="433" type="curve"/>
    </contour>
    <contour>
      <point x="138" y="271" type="line"/>
      <point x="137" y="274"/>
      <point x="135" y="274"/>
      <point x="133" y="274" type="curve"/>
      <point x="56" y="274" type="line"/>
      <point x="54" y="274"/>
      <point x="52" y="273"/>
      <point x="52" y="271" type="curve"/>
      <point x="54" y="4" type="line"/>
      <point x="54" y="2"/>
      <point x="55" y="1"/>
      <point x="58" y="1" type="curve"/>
      <point x="138" y="1" type="line"/>
      <point x="141" y="1"/>
      <point x="140" y="2"/>
      <point x="141" y="4" type="curve"/>
    </contour>
  </outline>
</glyph>
<glyph name="section" format="1">
  <advance width="445"/>
  <unicode hex="00A7"/>
  <outline>
    <contour>
      <point x="85" y="386" type="curve"/>
      <point x="92" y="380"/>
      <point x="244" y="289"/>
      <point x="270" y="273" type="curve" smooth="yes"/>
      <point x="273" y="272"/>
      <point x="273" y="271"/>
      <point x="274" y="270" type="curve"/>
      <point x="274" y="95" type="line" smooth="yes"/>
      <point x="274" y="93"/>
      <point x="273" y="92"/>
      <point x="271" y="92" type="curve" smooth="yes"/>
      <point x="168" y="92" type="line" smooth="yes"/>
      <point x="166" y="92"/>
      <point x="165" y="93"/>
      <point x="165" y="95" type="curve" smooth="yes"/>
      <point x="165" y="230" type="line"/>
      <point x="61" y="230" type="line"/>
      <point x="61" y="93" type="line" smooth="yes"/>
      <point x="61" y="42"/>
      <point x="103" y="0"/>
      <point x="156" y="0" type="curve" smooth="yes"/>
      <point x="289" y="0" type="line" smooth="yes"/>
      <point x="341" y="0"/>
      <point x="384" y="42"/>
      <point x="384" y="93" type="curve" smooth="yes"/>
      <point x="384" y="251" type="line"/>
      <point x="69" y="440" type="line"/>
      <point x="69" y="419" type="line" smooth="yes"/>
      <point x="69" y="407"/>
      <point x="74" y="393"/>
    </contour>
    <contour>
      <point x="373" y="361" type="curve" smooth="yes"/>
      <point x="367" y="365"/>
      <point x="189" y="473"/>
      <point x="189" y="473" type="curve"/>
      <point x="189" y="473"/>
      <point x="184" y="476"/>
      <point x="181" y="481" type="curve" smooth="yes"/>
      <point x="178" y="487"/>
      <point x="179" y="494"/>
      <point x="179" y="494" type="curve"/>
      <point x="179" y="611" type="line" smooth="yes"/>
      <point x="179" y="613"/>
      <point x="181" y="614"/>
      <point x="182" y="614" type="curve"/>
      <point x="268" y="614" type="line" smooth="yes"/>
      <point x="270" y="614"/>
      <point x="272" y="613"/>
      <point x="272" y="611" type="curve" smooth="yes"/>
      <point x="272" y="524" type="line"/>
      <point x="376" y="524" type="line"/>
      <point x="376" y="611" type="line" smooth="yes"/>
      <point x="376" y="662"/>
      <point x="334" y="704"/>
      <point x="282" y="704" type="curve" smooth="yes"/>
      <point x="163" y="704" type="line" smooth="yes"/>
      <point x="111" y="704"/>
      <point x="69" y="662"/>
      <point x="69" y="611" type="curve" smooth="yes"/>
      <point x="69" y="500" type="line"/>
      <point x="144" y="455"/>
      <point x="304" y="358"/>
      <point x="384" y="311" type="curve"/>
      <point x="384" y="340" type="line" smooth="yes"/>
      <point x="384" y="350"/>
      <point x="379" y="357"/>
    </contour>
    <contour>
      <point x="69" y="450" type="move"/>
    </contour>
  </outline>
</glyph>
<glyph name="registered" format="1">
  <advance width="442"/>
  <unicode hex="00AE"/>
  <outline>
    <contour>
      <point x="38" y="390" type="line"/>
      <point x="37" y="364"/>
      <point x="55" y="344"/>
      <point x="78" y="342" type="curve"/>
      <point x="360" y="342" type="line"/>
      <point x="382" y="342"/>
      <point x="402" y="359"/>
      <point x="405" y="386" type="curve"/>
      <point x="405" y="683" type="line"/>
      <point x="403" y="710"/>
      <point x="383" y="728"/>
      <point x="360" y="728" type="curve"/>
      <point x="78" y="728" type="line"/>
      <point x="55" y="726"/>
      <point x="37" y="706"/>
      <point x="37" y="680" type="curve"/>
    </contour>
    <contour>
      <point x="364" y="384" type="curve"/>
      <point x="77" y="384" type="line"/>
      <point x="76" y="384"/>
      <point x="76" y="385"/>
      <point x="76" y="387" type="curve"/>
      <point x="75" y="387" type="line"/>
      <point x="76" y="682" type="line"/>
      <point x="76" y="683" type="line"/>
      <point x="76" y="684"/>
      <point x="76" y="686"/>
      <point x="77" y="686" type="curve"/>
      <point x="364" y="686" type="line"/>
      <point x="365" y="686"/>
      <point x="366" y="684"/>
      <point x="366" y="683" type="curve"/>
      <point x="366" y="387" type="line"/>
      <point x="366" y="385"/>
      <point x="365" y="384"/>
    </contour>
    <contour>
      <point x="298" y="614" type="line"/>
      <point x="296" y="639"/>
      <point x="274" y="659"/>
      <point x="256" y="659" type="curve"/>
      <point x="145" y="659" type="line"/>
      <point x="144" y="657" type="line"/>
      <point x="144" y="407" type="line"/>
      <point x="145" y="406" type="line"/>
      <point x="192" y="406" type="line"/>
      <point x="193" y="406"/>
      <point x="193" y="407"/>
      <point x="193" y="407" type="curve"/>
      <point x="193" y="500" type="line"/>
      <point x="195" y="501"/>
      <point x="195" y="502"/>
      <point x="195" y="502" type="curve"/>
      <point x="224" y="502" type="line"/>
      <point x="253" y="502"/>
      <point x="256" y="468"/>
      <point x="256" y="468" type="curve"/>
      <point x="256" y="408" type="line"/>
      <point x="256" y="407"/>
      <point x="257" y="406"/>
      <point x="258" y="406" type="curve"/>
      <point x="303" y="406" type="line"/>
      <point x="304" y="406"/>
      <point x="304" y="407"/>
      <point x="304" y="408" type="curve"/>
      <point x="304" y="485" type="line"/>
      <point x="304" y="520"/>
      <point x="270" y="522"/>
      <point x="265" y="521" type="curve" smooth="yes"/>
      <point x="270" y="523"/>
      <point x="298" y="532"/>
      <point x="298" y="564" type="curve"/>
    </contour>
    <contour>
      <point x="252" y="581" type="line"/>
      <point x="252" y="544"/>
      <point x="231" y="543"/>
      <point x="222" y="543" type="curve"/>
      <point x="195" y="543" type="line"/>
      <point x="195" y="543"/>
      <point x="193" y="543"/>
      <point x="193" y="544" type="curve"/>
      <point x="193" y="612" type="line"/>
      <point x="195" y="613"/>
      <point x="195" y="614"/>
      <point x="195" y="614" type="curve"/>
      <point x="250" y="614" type="line"/>
      <point x="251" y="614"/>
      <point x="252" y="613"/>
      <point x="252" y="612" type="curve"/>
    </contour>
  </outline>
</glyph>
<glyph name="degree" format="1">
  <advance width="338"/>
  <unicode hex="00B0"/>
  <outline>
    <contour>
      <point x="225" y="509" type="line"/>
      <point x="225" y="508"/>
      <point x="225" y="506"/>
      <point x="222" y="506" type="curve"/>
      <point x="222" y="506" type="line"/>
      <point x="117" y="506" type="line"/>
      <point x="117" y="506" type="line"/>
      <point x="116" y="506"/>
      <point x="114" y="508"/>
      <point x="114" y="509" type="curve"/>
      <point x="114" y="637" type="line"/>
      <point x="114" y="638"/>
      <point x="116" y="640"/>
      <point x="117" y="640" type="curve"/>
      <point x="117" y="640" type="line"/>
      <point x="117" y="640" type="line"/>
      <point x="222" y="640" type="line"/>
      <point x="222" y="640" type="line"/>
      <point x="222" y="640" type="line"/>
      <point x="225" y="640"/>
      <point x="225" y="638"/>
      <point x="225" y="637" type="curve"/>
    </contour>
    <contour>
      <point x="123" y="704" type="line" smooth="yes"/>
      <point x="75" y="704"/>
      <point x="37" y="664"/>
      <point x="37" y="614" type="curve" smooth="yes"/>
      <point x="37" y="532" type="line" smooth="yes"/>
      <point x="37" y="482"/>
      <point x="75" y="442"/>
      <point x="123" y="442" type="curve"/>
      <point x="123" y="442" type="line"/>
      <point x="215" y="442" type="line"/>
      <point x="215" y="442" type="line"/>
      <point x="263" y="442"/>
      <point x="301" y="482"/>
      <point x="301" y="532" type="curve" smooth="yes"/>
      <point x="301" y="614" type="line" smooth="yes"/>
      <point x="301" y="664"/>
      <point x="263" y="704"/>
      <point x="215" y="704" type="curve" smooth="yes"/>
    </contour>
  </outline>
</glyph>
<glyph name="mu" format="1">
  <advance width="459"/>
  <unicode hex="00B5"/>
  <outline>
    <contour>
      <point x="158" y="-136" type="move"/>
    </contour>
    <contour>
      <point x="410" y="0" type="line" smooth="yes"/>
      <point x="412" y="0"/>
      <point x="413" y="1"/>
      <point x="413" y="3" type="curve" smooth="yes"/>
      <point x="413" y="84" type="line" smooth="yes"/>
      <point x="413" y="86"/>
      <point x="412" y="87"/>
      <point x="410" y="87" type="curve" smooth="yes"/>
      <point x="388" y="87" type="line"/>
      <point x="388" y="89"/>
      <point x="389" y="92"/>
      <point x="389" y="95" type="curve" smooth="yes"/>
      <point x="389" y="491" type="line" smooth="yes"/>
      <point x="389" y="493"/>
      <point x="388" y="494"/>
      <point x="386" y="494" type="curve" smooth="yes"/>
      <point x="287" y="494" type="line" smooth="yes"/>
      <point x="285" y="494"/>
      <point x="284" y="493"/>
      <point x="284" y="491" type="curve" smooth="yes"/>
      <point x="284" y="91" type="line"/>
      <point x="284" y="90"/>
      <point x="282" y="88"/>
      <point x="281" y="88" type="curve"/>
      <point x="161" y="88" type="line"/>
      <point x="160" y="88"/>
      <point x="158" y="89"/>
      <point x="158" y="90" type="curve"/>
      <point x="158" y="491" type="line" smooth="yes"/>
      <point x="158" y="493"/>
      <point x="157" y="494"/>
      <point x="155" y="494" type="curve" smooth="yes"/>
      <point x="56" y="494" type="line" smooth="yes"/>
      <point x="54" y="494"/>
      <point x="53" y="493"/>
      <point x="53" y="491" type="curve" smooth="yes"/>
      <point x="53" y="95" type="line"/>
      <point x="53" y="91" type="line"/>
      <point x="53" y="-136" type="line" smooth="yes"/>
      <point x="53" y="-138"/>
      <point x="54" y="-139"/>
      <point x="56" y="-139" type="curve" smooth="yes"/>
      <point x="155" y="-139" type="line" smooth="yes"/>
      <point x="157" y="-139"/>
      <point x="158" y="-138"/>
      <point x="158" y="-136" type="curve" smooth="yes"/>
      <point x="158" y="0" type="line"/>
      <point x="295" y="0" type="line"/>
      <point x="299" y="0" type="line"/>
    </contour>
  </outline>
</glyph>
<glyph name="paragraph" format="1">
  <advance width="530"/>
  <unicode hex="00B6"/>
  <outline>
    <contour>
      <point x="126" y="0" type="curve"/>
      <point x="230" y="0" type="line" smooth="yes"/>
      <point x="232" y="0"/>
      <point x="233" y="1"/>
      <point x="233" y="3" type="curve" smooth="yes"/>
      <point x="233" y="611" type="line"/>
      <point x="233" y="612"/>
      <point x="235" y="614"/>
      <point x="236" y="614" type="curve"/>
      <point x="352" y="614" type="line"/>
      <point x="353" y="614"/>
      <point x="355" y="612"/>
      <point x="355" y="611" type="curve"/>
      <point x="355" y="3" type="line" smooth="yes"/>
      <point x="355" y="1"/>
      <point x="356" y="0"/>
      <point x="358" y="0" type="curve" smooth="yes"/>
      <point x="462" y="0" type="line" smooth="yes"/>
      <point x="464" y="0"/>
      <point x="465" y="1"/>
      <point x="465" y="3" type="curve" smooth="yes"/>
      <point x="465" y="609" type="line" smooth="yes"/>
      <point x="465" y="662"/>
      <point x="423" y="704"/>
      <point x="371" y="704" type="curve" smooth="yes"/>
      <point x="212" y="704"/>
      <point x="206" y="704"/>
      <point x="120" y="703" type="curve"/>
      <point x="68" y="703"/>
      <point x="28" y="671"/>
      <point x="28" y="619" type="curve" smooth="yes"/>
      <point x="28" y="574" type="line" smooth="yes"/>
      <point x="28" y="522"/>
      <point x="73" y="494"/>
      <point x="125" y="494" type="curve" smooth="yes"/>
      <point x="123" y="494" type="line"/>
      <point x="123" y="3" type="line" smooth="yes"/>
      <point x="123" y="1"/>
      <point x="124" y="0"/>
    </contour>
  </outline>
</glyph>
<glyph name="periodcentered" format="1">
  <advance width="194"/>
  <unicode hex="00B7"/>
  <outline>
    <contour>
      <point x="41" y="332" type="line" smooth="yes"/>
      <point x="39" y="332"/>
      <point x="37" y="331"/>
      <point x="37" y="329" type="curve" smooth="yes"/>
      <point x="37" y="235" type="line" smooth="yes"/>
      <point x="37" y="233"/>
      <point x="39" y="231"/>
      <point x="41" y="231" type="curve" smooth="yes"/>
      <point x="153" y="231" type="line" smooth="yes"/>
      <point x="155" y="231"/>
      <point x="156" y="233"/>
      <point x="157" y="235" type="curve"/>
      <point x="157" y="329" type="line"/>
      <point x="156" y="331"/>
      <point x="155" y="332"/>
      <point x="153" y="332" type="curve" smooth="yes"/>
    </contour>
  </outline>
</glyph>
<glyph name="cedilla" format="1">
  <advance width="222"/>
  <unicode hex="00B8"/>
  <outline>
    <contour>
      <point x="134" y="-3" type="line"/>
      <point x="134" y="-2"/>
      <point x="133" y="-1"/>
      <point x="132" y="-1" type="curve" smooth="yes"/>
      <point x="85" y="-1" type="line"/>
      <point x="85" y="-1"/>
      <point x="85" y="-2"/>
      <point x="85" y="-3" type="curve" smooth="yes"/>
      <point x="85" y="-48" type="line" smooth="yes"/>
      <point x="85" y="-50"/>
      <point x="85" y="-52"/>
      <point x="85" y="-54" type="curve" smooth="yes"/>
      <point x="96" y="-71"/>
      <point x="132" y="-97"/>
      <point x="132" y="-98" type="curve"/>
      <point x="133" y="-99"/>
      <point x="133" y="-101"/>
      <point x="133" y="-101" type="curve" smooth="yes"/>
      <point x="133" y="-102"/>
      <point x="133" y="-161"/>
      <point x="133" y="-161" type="curve" smooth="yes"/>
      <point x="133" y="-162"/>
      <point x="132" y="-163"/>
      <point x="131" y="-163" type="curve"/>
      <point x="131" y="-163" type="line"/>
      <point x="131" y="-163" type="line"/>
      <point x="94" y="-163" type="line" smooth="yes"/>
      <point x="93" y="-163"/>
      <point x="92" y="-162"/>
      <point x="92" y="-161" type="curve"/>
      <point x="92" y="-121" type="line"/>
      <point x="50" y="-121" type="line"/>
      <point x="50" y="-161" type="line" smooth="yes"/>
      <point x="50" y="-182"/>
      <point x="67" y="-201"/>
      <point x="89" y="-201" type="curve" smooth="yes"/>
      <point x="131" y="-201" type="line"/>
      <point x="135" y="-201" type="line" smooth="yes"/>
      <point x="159" y="-201"/>
      <point x="174" y="-183"/>
      <point x="174" y="-161" type="curve" smooth="yes"/>
      <point x="174" y="-83" type="line" smooth="yes"/>
      <point x="174" y="-81"/>
      <point x="174" y="-80"/>
      <point x="173" y="-79" type="curve" smooth="yes"/>
      <point x="173" y="-78"/>
      <point x="135" y="-45"/>
      <point x="135" y="-44" type="curve" smooth="yes"/>
      <point x="135" y="-43"/>
      <point x="135" y="-42"/>
      <point x="135" y="-41" type="curve" smooth="yes"/>
    </contour>
    <contour>
      <point x="108" y="0" type="move" name="_Bottom"/>
    </contour>
  </outline>
</glyph>
<glyph name="ordmasculine" format="1">
  <advance width="385"/>
  <unicode hex="00BA"/>
  <outline>
    <contour>
      <point x="111" y="731" type="line" smooth="yes"/>
      <point x="70" y="731"/>
      <point x="39" y="697"/>
      <point x="39" y="656" type="curve" smooth="yes"/>
      <point x="39" y="414" type="line" smooth="yes"/>
      <point x="39" y="373"/>
      <point x="69" y="339"/>
      <point x="110" y="339" type="curve" smooth="yes"/>
      <point x="273" y="339" type="line" smooth="yes"/>
      <point x="314" y="339"/>
      <point x="346" y="373"/>
      <point x="346" y="414" type="curve" smooth="yes"/>
      <point x="346" y="656" type="line" smooth="yes"/>
      <point x="346" y="697"/>
      <point x="314" y="731"/>
      <point x="273" y="731" type="curve" smooth="yes"/>
    </contour>
    <contour>
      <point x="258" y="409" type="line"/>
      <point x="258" y="408"/>
      <point x="257" y="407"/>
      <point x="255" y="406" type="curve"/>
      <point x="125" y="406" type="line"/>
      <point x="124" y="407"/>
      <point x="122" y="408"/>
      <point x="122" y="409" type="curve"/>
      <point x="122" y="663" type="line"/>
      <point x="122" y="664"/>
      <point x="124" y="665"/>
      <point x="125" y="665" type="curve"/>
      <point x="255" y="665" type="line" smooth="yes"/>
      <point x="257" y="665"/>
      <point x="258" y="664"/>
      <point x="258" y="663" type="curve"/>
    </contour>
  </outline>
</glyph>
<glyph name="threequarters" format="1">
  <advance width="597"/>
  <unicode hex="00BE"/>
  <outline>
    <contour>
      <point x="97" y="529" type="line"/>
      <point x="97" y="529"/>
      <point x="97" y="528"/>
      <point x="98" y="528" type="curve"/>
      <point x="144" y="528" type="line"/>
      <point x="144" y="528"/>
      <point x="144" y="527"/>
      <point x="144" y="526" type="curve"/>
      <point x="144" y="447" type="line" smooth="yes"/>
      <point x="144" y="445"/>
      <point x="144" y="445"/>
      <point x="143" y="444" type="curve"/>
      <point x="95" y="444" type="line"/>
      <point x="95" y="445"/>
      <point x="94" y="445"/>
      <point x="94" y="447" type="curve" smooth="yes"/>
      <point x="94" y="491" type="line"/>
      <point x="94" y="492"/>
      <point x="93" y="493"/>
      <point x="92" y="493" type="curve"/>
      <point x="30" y="493" type="line"/>
      <point x="29" y="493"/>
      <point x="28" y="492"/>
      <point x="28" y="491" type="curve"/>
      <point x="28" y="447" type="line" smooth="yes"/>
      <point x="28" y="416"/>
      <point x="56" y="393"/>
      <point x="91" y="393" type="curve" smooth="yes"/>
      <point x="154" y="393" type="line" smooth="yes"/>
      <point x="189" y="393"/>
      <point x="216" y="416"/>
      <point x="216" y="447" type="curve" smooth="yes"/>
      <point x="216" y="559" type="line" smooth="yes"/>
      <point x="216" y="566"/>
      <point x="216" y="569"/>
      <point x="208" y="569" type="curve" smooth="yes"/>
      <point x="156" y="569" type="line"/>
      <point x="156" y="569"/>
      <point x="156" y="569"/>
      <point x="156" y="569" type="curve"/>
      <point x="206" y="601" type="line" smooth="yes"/>
      <point x="213" y="605"/>
      <point x="216" y="613"/>
      <point x="216" y="620" type="curve" smooth="yes"/>
      <point x="216" y="675" type="line" smooth="yes"/>
      <point x="216" y="704"/>
      <point x="189" y="728"/>
      <point x="154" y="728" type="curve" smooth="yes"/>
      <point x="91" y="728" type="line" smooth="yes"/>
      <point x="56" y="728"/>
      <point x="28" y="704"/>
      <point x="28" y="675" type="curve" smooth="yes"/>
      <point x="28" y="625" type="line"/>
      <point x="28" y="624"/>
      <point x="29" y="623"/>
      <point x="30" y="623" type="curve"/>
      <point x="92" y="623" type="line"/>
      <point x="92" y="623"/>
      <point x="94" y="624"/>
      <point x="94" y="625" type="curve"/>
      <point x="94" y="675" type="line"/>
      <point x="94" y="676"/>
      <point x="95" y="677"/>
      <point x="95" y="677" type="curve"/>
      <point x="143" y="677" type="line"/>
      <point x="144" y="677"/>
      <point x="144" y="677"/>
      <point x="144" y="675" type="curve" smooth="yes"/>
      <point x="144" y="614" type="line"/>
      <point x="97" y="583" type="line"/>
    </contour>
    <contour>
      <point x="427" y="333" type="line"/>
      <point x="363" y="142" type="line" smooth="yes"/>
      <point x="362" y="140"/>
      <point x="362" y="138"/>
      <point x="362" y="137" type="curve"/>
      <point x="362" y="99" type="line"/>
      <point x="362" y="98"/>
      <point x="363" y="98"/>
      <point x="363" y="98" type="curve"/>
      <point x="464" y="98" type="line"/>
      <point x="464" y="1" type="line"/>
      <point x="464" y="0"/>
      <point x="464" y="-1"/>
      <point x="465" y="-1" type="curve"/>
      <point x="531" y="-1" type="line"/>
      <point x="531" y="-1"/>
      <point x="532" y="0"/>
      <point x="532" y="1" type="curve"/>
      <point x="532" y="330" type="line"/>
      <point x="532" y="331"/>
      <point x="532" y="332"/>
      <point x="531" y="332" type="curve"/>
    </contour>
    <contour>
      <point x="424" y="140" type="line"/>
      <point x="423" y="140"/>
      <point x="423" y="141"/>
      <point x="423" y="143" type="curve"/>
      <point x="424" y="144"/>
      <point x="450" y="235"/>
      <point x="463" y="275" type="curve"/>
      <point x="463" y="140" type="line"/>
    </contour>
    <component base="slash" xOffset="64"/>
  </outline>
</glyph>
<glyph name="questiondown" format="1">
  <advance width="390"/>
  <unicode hex="00BF"/>
  <outline>
    <contour>
      <point x="144" y="441" type="line" smooth="yes"/>
      <point x="144" y="439"/>
      <point x="144" y="437"/>
      <point x="143" y="436" type="curve" smooth="yes"/>
      <point x="141" y="432"/>
      <point x="54" y="287"/>
      <point x="53" y="285" type="curve" smooth="yes"/>
      <point x="52" y="283"/>
      <point x="51" y="279"/>
      <point x="51" y="276" type="curve" smooth="yes"/>
      <point x="51" y="93" type="line" smooth="yes"/>
      <point x="51" y="42"/>
      <point x="87" y="1"/>
      <point x="140" y="1" type="curve" smooth="yes"/>
      <point x="152" y="1" type="line"/>
      <point x="249" y="1" type="line" smooth="yes"/>
      <point x="301" y="1"/>
      <point x="340" y="43"/>
      <point x="340" y="94" type="curve" smooth="yes"/>
      <point x="340" y="234" type="line"/>
      <point x="241" y="234" type="line"/>
      <point x="241" y="93" type="line"/>
      <point x="241" y="92"/>
      <point x="240" y="90"/>
      <point x="238" y="90" type="curve" smooth="yes"/>
      <point x="151" y="90" type="line"/>
      <point x="151" y="90" type="line"/>
      <point x="151" y="90" type="line"/>
      <point x="149" y="90"/>
      <point x="148" y="91"/>
      <point x="148" y="93" type="curve" smooth="yes"/>
      <point x="148" y="93"/>
      <point x="148" y="230"/>
      <point x="148" y="233" type="curve" smooth="yes"/>
      <point x="148" y="235"/>
      <point x="148" y="239"/>
      <point x="150" y="241" type="curve"/>
      <point x="150" y="242"/>
      <point x="232" y="371"/>
      <point x="258" y="414" type="curve" smooth="yes"/>
      <point x="259" y="417"/>
      <point x="260" y="423"/>
      <point x="260" y="426" type="curve" smooth="yes"/>
      <point x="260" y="556" type="line" smooth="yes"/>
      <point x="260" y="558"/>
      <point x="259" y="559"/>
      <point x="258" y="559" type="curve"/>
      <point x="149" y="559" type="line" smooth="yes"/>
      <point x="147" y="559"/>
      <point x="145" y="558"/>
      <point x="145" y="556" type="curve" smooth="yes"/>
    </contour>
    <contour>
      <point x="255" y="612" type="line" smooth="yes"/>
      <point x="257" y="612"/>
      <point x="259" y="613"/>
      <point x="259" y="615" type="curve" smooth="yes"/>
      <point x="259" y="709" type="line" smooth="yes"/>
      <point x="259" y="711"/>
      <point x="257" y="713"/>
      <point x="255" y="713" type="curve" smooth="yes"/>
      <point x="143" y="713" type="line" smooth="yes"/>
      <point x="141" y="713"/>
      <point x="140" y="711"/>
      <point x="139" y="709" type="curve"/>
      <point x="139" y="615" type="line"/>
      <point x="140" y="613"/>
      <point x="141" y="612"/>
      <point x="143" y="612" type="curve" smooth="yes"/>
    </contour>
  </outline>
</glyph>
<glyph name="germandbls" format="1">
  <advance width="489"/>
  <unicode hex="00DF"/>
  <outline>
    <contour>
      <point x="194" y="613" type="line"/>
      <point x="194" y="615"/>
      <point x="195" y="616"/>
      <point x="197" y="616" type="curve"/>
      <point x="304" y="616" type="line"/>
      <point x="306" y="616"/>
      <point x="307" y="615"/>
      <point x="307" y="613" type="curve"/>
      <point x="307" y="514" type="line" smooth="yes"/>
      <point x="307" y="438"/>
      <point x="270" y="435"/>
      <point x="251" y="435" type="curve"/>
      <point x="251" y="355" type="line"/>
      <point x="313" y="355"/>
      <point x="311" y="272"/>
      <point x="311" y="272" type="curve"/>
      <point x="311" y="94" type="line" smooth="yes"/>
      <point x="311" y="92"/>
      <point x="309" y="91"/>
      <point x="308" y="91" type="curve"/>
      <point x="273" y="91" type="line"/>
      <point x="273" y="0" type="line"/>
      <point x="317" y="0" type="line" smooth="yes"/>
      <point x="370" y="0"/>
      <point x="411" y="41"/>
      <point x="411" y="94" type="curve" smooth="yes"/>
      <point x="411" y="313" type="line" smooth="yes"/>
      <point x="411" y="391"/>
      <point x="349" y="396"/>
      <point x="330" y="395" type="curve" smooth="yes"/>
      <point x="349" y="397"/>
      <point x="407" y="414"/>
      <point x="407" y="478" type="curve" smooth="yes"/>
      <point x="407" y="551" type="line"/>
      <point x="407" y="552" type="line"/>
      <point x="407" y="609" type="line" smooth="yes"/>
      <point x="407" y="662"/>
      <point x="365" y="704"/>
      <point x="313" y="704" type="curve" smooth="yes"/>
      <point x="182" y="704" type="line"/>
      <point x="130" y="703"/>
      <point x="89" y="661"/>
      <point x="89" y="609" type="curve" smooth="yes"/>
      <point x="89" y="493" type="line"/>
      <point x="53" y="493" type="line" smooth="yes"/>
      <point x="51" y="493"/>
      <point x="50" y="491"/>
      <point x="50" y="489" type="curve" smooth="yes"/>
      <point x="50" y="417" type="line" smooth="yes"/>
      <point x="50" y="415"/>
      <point x="51" y="414"/>
      <point x="53" y="413" type="curve"/>
      <point x="89" y="413" type="line"/>
      <point x="89" y="3" type="line" smooth="yes"/>
      <point x="89" y="1"/>
      <point x="90" y="0"/>
      <point x="92" y="0" type="curve" smooth="yes"/>
      <point x="191" y="0" type="line" smooth="yes"/>
      <point x="193" y="0"/>
      <point x="194" y="1"/>
      <point x="194" y="3" type="curve" smooth="yes"/>
    </contour>
  </outline>
</glyph>
<glyph name="thorn" format="1">
  <advance width="189"/>
  <unicode hex="00FE"/>
  <outline>
    <contour>
      <point x="60" y="728" type="line" smooth="yes"/>
      <point x="58" y="728"/>
      <point x="56" y="727"/>
      <point x="56" y="725" type="curve" smooth="yes"/>
      <point x="56" y="-160" type="line" smooth="yes"/>
      <point x="56" y="-162"/>
      <point x="58" y="-164"/>
      <point x="60" y="-164" type="curve" smooth="yes"/>
      <point x="157" y="-164" type="line" smooth="yes"/>
      <point x="159" y="-164"/>
      <point x="160" y="-162"/>
      <point x="161" y="-160" type="curve"/>
      <point x="161" y="0" type="line"/>
      <point x="287" y="0" type="line" smooth="yes"/>
      <point x="338" y="0"/>
      <point x="378" y="42"/>
      <point x="378" y="94" type="curve" smooth="yes"/>
      <point x="378" y="400" type="line" smooth="yes"/>
      <point x="378" y="452"/>
      <point x="338" y="494"/>
      <point x="286" y="494" type="curve" smooth="yes"/>
      <point x="161" y="494" type="line"/>
      <point x="161" y="725" type="line"/>
      <point x="160" y="727"/>
      <point x="159" y="728"/>
      <point x="157" y="728" type="curve" smooth="yes"/>
    </contour>
    <contour>
      <point x="273" y="94" type="line" smooth="yes"/>
      <point x="273" y="92"/>
      <point x="272" y="91"/>
      <point x="270" y="90" type="curve"/>
      <point x="161" y="90" type="line"/>
      <point x="161" y="406" type="line"/>
      <point x="270" y="406" type="line" smooth="yes"/>
      <point x="272" y="406"/>
      <point x="273" y="405"/>
      <point x="273" y="403" type="curve" smooth="yes"/>
    </contour>
  </outline>
</glyph>
<glyph name="dotlessi" format="1">
  <advance width="235"/>
  <unicode hex="0131"/>
  <outline>
    <contour>
      <point x="64" y="455" type="line" smooth="yes"/>
      <point x="62" y="455"/>
      <point x="60" y="454"/>
      <point x="60" y="452" type="curve" smooth="yes"/>
      <point x="60" y="4" type="line" smooth="yes"/>
      <point x="60" y="2"/>
      <point x="62" y="0"/>
      <point x="64" y="0" type="curve" smooth="yes"/>
      <point x="171" y="0" type="line" smooth="yes"/>
      <point x="173" y="0"/>
      <point x="174" y="2"/>
      <point x="175" y="4" type="curve"/>
      <point x="175" y="452" type="line"/>
      <point x="174" y="454"/>
      <point x="173" y="455"/>
      <point x="171" y="455" type="curve" smooth="yes"/>
    </contour>
    <contour>
      <point x="120" y="487" type="move" name="Top"/>
    </contour>
    <contour>
      <point x="92" y="247" type="move" name="_Right"/>
    </contour>
  </outline>
</glyph>
<glyph name="OE" format="1">
  <advance width="607"/>
  <unicode hex="0152"/>
  <outline>
    <contour>
      <point x="573" y="700" type="line" smooth="yes"/>
      <point x="573" y="702"/>
      <point x="572" y="704"/>
      <point x="570" y="704" type="curve" smooth="yes"/>
      <point x="156" y="704" type="line" smooth="yes"/>
      <point x="104" y="704"/>
      <point x="62" y="662"/>
      <point x="62" y="610" type="curve" smooth="yes"/>
      <point x="62" y="94" type="line" smooth="yes"/>
      <point x="62" y="42"/>
      <point x="103" y="0"/>
      <point x="155" y="0" type="curve" smooth="yes"/>
      <point x="562" y="0" type="line" smooth="yes"/>
      <point x="564" y="0"/>
      <point x="566" y="1"/>
      <point x="566" y="3" type="curve" smooth="yes"/>
      <point x="566" y="89" type="line" smooth="yes"/>
      <point x="566" y="91"/>
      <point x="564" y="92"/>
      <point x="562" y="92" type="curve" smooth="yes"/>
      <point x="401" y="92" type="line"/>
      <point x="401" y="352" type="line"/>
      <point x="550" y="352" type="line" smooth="yes"/>
      <point x="552" y="352"/>
      <point x="554" y="353"/>
      <point x="554" y="355" type="curve" smooth="yes"/>
      <point x="554" y="428" type="line" smooth="yes"/>
      <point x="554" y="430"/>
      <point x="552" y="432"/>
      <point x="550" y="432" type="curve" smooth="yes"/>
      <point x="401" y="432" type="line"/>
      <point x="401" y="614" type="line"/>
      <point x="570" y="614" type="line" smooth="yes"/>
      <point x="572" y="614"/>
      <point x="573" y="616"/>
      <point x="573" y="618" type="curve" smooth="yes"/>
    </contour>
    <contour>
      <point x="291" y="94" type="line" smooth="yes"/>
      <point x="291" y="92"/>
      <point x="290" y="91"/>
      <point x="288" y="90" type="curve"/>
      <point x="176" y="90" type="line"/>
      <point x="174" y="91"/>
      <point x="172" y="92"/>
      <point x="172" y="94" type="curve" smooth="yes"/>
      <point x="172" y="611" type="line" smooth="yes"/>
      <point x="172" y="613"/>
      <point x="174" y="614"/>
      <point x="176" y="614" type="curve" smooth="yes"/>
      <point x="288" y="614" type="line" smooth="yes"/>
      <point x="290" y="614"/>
      <point x="291" y="613"/>
      <point x="291" y="611" type="curve" smooth="yes"/>
    </contour>
  </outline>
</glyph>
<glyph name="circumflex" format="1">
  <advance width="347"/>
  <unicode hex="02C6"/>
  <outline>
    <contour>
      <point x="39" y="564" type="line"/>
      <point x="39" y="564"/>
      <point x="40" y="562"/>
      <point x="41" y="562" type="curve"/>
      <point x="91" y="562" type="line"/>
      <point x="92" y="562"/>
      <point x="93" y="563"/>
      <point x="94" y="564" type="curve"/>
      <point x="167" y="637" type="line"/>
      <point x="168" y="639"/>
      <point x="172" y="640"/>
      <point x="172" y="640" type="curve"/>
      <point x="173" y="640" type="line"/>
      <point x="174" y="640"/>
      <point x="177" y="639"/>
      <point x="179" y="637" type="curve"/>
      <point x="251" y="565" type="line"/>
      <point x="252" y="564"/>
      <point x="254" y="562"/>
      <point x="256" y="562" type="curve"/>
      <point x="305" y="562" type="line"/>
      <point x="307" y="562"/>
      <point x="307" y="564"/>
      <point x="307" y="564" type="curve"/>
      <point x="307" y="584" type="line"/>
      <point x="308" y="588"/>
      <point x="306" y="590"/>
      <point x="305" y="592" type="curve"/>
      <point x="179" y="717" type="line"/>
      <point x="178" y="718"/>
      <point x="175" y="719"/>
      <point x="174" y="719" type="curve"/>
      <point x="172" y="719" type="line"/>
      <point x="171" y="719"/>
      <point x="167" y="718"/>
      <point x="167" y="717" type="curve"/>
      <point x="41" y="592" type="line"/>
      <point x="41" y="592"/>
      <point x="39" y="589"/>
      <point x="39" y="585" type="curve"/>
    </contour>
    <contour>
      <point x="175" y="522" type="move" name="_Top"/>
    </contour>
  </outline>
</glyph>
<glyph name="caron" format="1">
  <advance width="576"/>
  <unicode hex="02C7"/>
  <outline>
    <contour>
      <point x="46" y="702" type="line"/>
      <point x="45" y="697"/>
      <point x="50" y="693"/>
      <point x="50" y="693" type="curve"/>
      <point x="276" y="469" type="line" smooth="yes"/>
      <point x="278" y="467"/>
      <point x="283" y="465"/>
      <point x="286" y="464" type="curve" smooth="yes"/>
      <point x="288" y="464" type="line"/>
      <point x="289" y="464" type="line"/>
      <point x="293" y="465"/>
      <point x="297" y="467"/>
      <point x="300" y="469" type="curve" smooth="yes"/>
      <point x="526" y="693" type="line"/>
      <point x="526" y="693"/>
      <point x="531" y="697"/>
      <point x="530" y="702" type="curve"/>
      <point x="531" y="725" type="line"/>
      <point x="531" y="726"/>
      <point x="529" y="728"/>
      <point x="527" y="728" type="curve" smooth="yes"/>
      <point x="432" y="728" type="line" smooth="yes"/>
      <point x="430" y="728"/>
      <point x="429" y="727"/>
      <point x="429" y="725" type="curve"/>
      <point x="299" y="593" type="line"/>
      <point x="296" y="591"/>
      <point x="291" y="589"/>
      <point x="288" y="589" type="curve" smooth="yes"/>
      <point x="286" y="589" type="line"/>
      <point x="285" y="589"/>
      <point x="279" y="591"/>
      <point x="277" y="593" type="curve" smooth="yes"/>
      <point x="147" y="725" type="line" smooth="yes"/>
      <point x="146" y="727"/>
      <point x="145" y="728"/>
      <point x="144" y="728" type="curve"/>
      <point x="49" y="728" type="line" smooth="yes"/>
      <point x="47" y="728"/>
      <point x="45" y="726"/>
      <point x="45" y="725" type="curve"/>
    </contour>
  </outline>
</glyph>
<glyph name="ring" format="1">
  <advance width="246"/>
  <unicode hex="02DA"/>
  <outline>
    <contour>
      <point x="153" y="581" type="line" smooth="yes"/>
      <point x="153" y="580"/>
      <point x="153" y="579"/>
      <point x="151" y="579" type="curve"/>
      <point x="151" y="579" type="line"/>
      <point x="134" y="579" type="line"/>
      <point x="134" y="579" type="line"/>
      <point x="108" y="579" type="line"/>
      <point x="108" y="579" type="line"/>
      <point x="96" y="579" type="line"/>
      <point x="96" y="579" type="line"/>
      <point x="95" y="579"/>
      <point x="94" y="580"/>
      <point x="94" y="581" type="curve" smooth="yes"/>
      <point x="94" y="651" type="line" smooth="yes"/>
      <point x="94" y="652"/>
      <point x="95" y="653"/>
      <point x="96" y="653" type="curve"/>
      <point x="96" y="653" type="line"/>
      <point x="96" y="653" type="line"/>
      <point x="151" y="653" type="line"/>
      <point x="151" y="653" type="line"/>
      <point x="151" y="653" type="line"/>
      <point x="153" y="653"/>
      <point x="153" y="652"/>
      <point x="153" y="651" type="curve" smooth="yes"/>
    </contour>
    <contour>
      <point x="93" y="701" type="line" smooth="yes"/>
      <point x="62" y="701"/>
      <point x="37" y="675"/>
      <point x="37" y="643" type="curve" smooth="yes"/>
      <point x="37" y="589" type="line" smooth="yes"/>
      <point x="37" y="557"/>
      <point x="62" y="531"/>
      <point x="93" y="531" type="curve"/>
      <point x="93" y="531" type="line"/>
      <point x="153" y="531" type="line"/>
      <point x="153" y="531" type="line"/>
      <point x="184" y="531"/>
      <point x="209" y="557"/>
      <point x="209" y="589" type="curve" smooth="yes"/>
      <point x="209" y="643" type="line" smooth="yes"/>
      <point x="209" y="675"/>
      <point x="184" y="701"/>
      <point x="153" y="701" type="curve" smooth="yes"/>
    </contour>
    <contour>
      <point x="126" y="490" type="move" name="_Top"/>
    </contour>
  </outline>
</glyph>
<glyph name="hungarumlaut" format="1">
  <advance width="512"/>
  <unicode hex="02DD"/>
  <outline>
    <contour>
      <point x="191" y="728" type="line"/>
      <point x="191" y="730"/>
      <point x="190" y="731"/>
      <point x="187" y="731" type="curve" smooth="yes"/>
      <point x="121" y="731" type="line" smooth="yes"/>
      <point x="118" y="731"/>
      <point x="117" y="730"/>
      <point x="116" y="728" type="curve" smooth="yes"/>
      <point x="56" y="564" type="line"/>
      <point x="56" y="562"/>
      <point x="57" y="561"/>
      <point x="60" y="561" type="curve" smooth="yes"/>
      <point x="127" y="561" type="line" smooth="yes"/>
      <point x="130" y="561"/>
      <point x="130" y="562"/>
      <point x="131" y="564" type="curve" smooth="yes"/>
    </contour>
    <contour>
      <point x="447" y="728" type="line"/>
      <point x="447" y="730"/>
      <point x="446" y="731"/>
      <point x="443" y="731" type="curve" smooth="yes"/>
      <point x="377" y="731" type="line" smooth="yes"/>
      <point x="374" y="731"/>
      <point x="373" y="730"/>
      <point x="372" y="728" type="curve" smooth="yes"/>
      <point x="312" y="564" type="line"/>
      <point x="312" y="562"/>
      <point x="313" y="561"/>
      <point x="316" y="561" type="curve" smooth="yes"/>
      <point x="383" y="561" type="line" smooth="yes"/>
      <point x="386" y="561"/>
      <point x="386" y="562"/>
      <point x="387" y="564" type="curve" smooth="yes"/>
    </contour>
  </outline>
</glyph>
<glyph name="emdash" format="1">
  <advance width="863"/>
  <unicode hex="2014"/>
  <outline>
    <contour>
      <point x="54" y="299" type="line"/>
      <point x="55" y="299"/>
      <point x="50" y="297"/>
      <point x="50" y="295" type="curve" smooth="yes"/>
      <point x="50" y="235" type="line" smooth="yes"/>
      <point x="50" y="233"/>
      <point x="52" y="231"/>
      <point x="53" y="231" type="curve"/>
      <point x="810" y="231" type="line"/>
      <point x="811" y="231"/>
      <point x="813" y="233"/>
      <point x="813" y="235" type="curve" smooth="yes"/>
      <point x="813" y="295" type="line" smooth="yes"/>
      <point x="813" y="297"/>
      <point x="811" y="299"/>
      <point x="809" y="299" type="curve" smooth="yes"/>
    </contour>
  </outline>
</glyph>
<glyph name="quotedblleft" format="1">
  <advance width="422"/>
  <unicode hex="201C"/>
  <outline>
    <contour>
      <point x="368" y="529" type="line"/>
      <point x="370" y="529"/>
      <point x="372" y="530"/>
      <point x="372" y="532" type="curve" smooth="yes"/>
      <point x="372" y="633" type="line" smooth="yes"/>
      <point x="372" y="635"/>
      <point x="370" y="637"/>
      <point x="368" y="637" type="curve" smooth="yes"/>
      <point x="312" y="637" type="line"/>
      <point x="251" y="726" type="line" smooth="yes"/>
      <point x="250" y="727"/>
      <point x="248" y="724"/>
      <point x="247" y="722" type="curve"/>
      <point x="247" y="532" type="line"/>
      <point x="248" y="530"/>
      <point x="249" y="529"/>
      <point x="251" y="529" type="curve"/>
    </contour>
    <contour>
      <point x="171" y="529" type="line"/>
      <point x="173" y="529"/>
      <point x="175" y="530"/>
      <point x="175" y="532" type="curve" smooth="yes"/>
      <point x="175" y="633" type="line" smooth="yes"/>
      <point x="175" y="635"/>
      <point x="173" y="637"/>
      <point x="171" y="637" type="curve" smooth="yes"/>
      <point x="115" y="637" type="line"/>
      <point x="54" y="726" type="line" smooth="yes"/>
      <point x="53" y="727"/>
      <point x="51" y="724"/>
      <point x="50" y="722" type="curve"/>
      <point x="50" y="532" type="line"/>
      <point x="51" y="530"/>
      <point x="52" y="529"/>
      <point x="54" y="529" type="curve"/>
    </contour>
  </outline>
</glyph>
<glyph name="dagger" format="1">
  <advance width="396"/>
  <unicode hex="2020"/>
  <outline>
    <contour>
      <point x="164" y="7" type="line"/>
      <point x="164" y="8"/>
      <point x="166" y="3"/>
      <point x="168" y="3" type="curve" smooth="yes"/>
      <point x="228" y="3" type="line" smooth="yes"/>
      <point x="230" y="3"/>
      <point x="232" y="5"/>
      <point x="232" y="6" type="curve"/>
      <point x="232" y="487" type="line"/>
      <point x="377" y="487" type="line"/>
      <point x="378" y="487"/>
      <point x="380" y="489"/>
      <point x="380" y="491" type="curve" smooth="yes"/>
      <point x="380" y="551" type="line" smooth="yes"/>
      <point x="380" y="553"/>
      <point x="378" y="555"/>
      <point x="376" y="555" type="curve" smooth="yes"/>
      <point x="232" y="555" type="line"/>
      <point x="232" y="700" type="line"/>
      <point x="232" y="701"/>
      <point x="230" y="703"/>
      <point x="228" y="703" type="curve" smooth="yes"/>
      <point x="168" y="703" type="line" smooth="yes"/>
      <point x="166" y="703"/>
      <point x="164" y="701"/>
      <point x="164" y="699" type="curve" smooth="yes"/>
      <point x="164" y="555" type="line"/>
      <point x="20" y="555" type="line"/>
      <point x="21" y="555"/>
      <point x="16" y="553"/>
      <point x="16" y="551" type="curve" smooth="yes"/>
      <point x="16" y="491" type="line" smooth="yes"/>
      <point x="16" y="489"/>
      <point x="18" y="487"/>
      <point x="19" y="487" type="curve"/>
      <point x="164" y="487" type="line"/>
    </contour>
  </outline>
</glyph>
<glyph name="bullet" format="1">
  <advance width="300"/>
  <unicode hex="2022"/>
  <outline>
    <contour>
      <point x="116" y="400" type="line" smooth="yes"/>
      <point x="78" y="400"/>
      <point x="50" y="370"/>
      <point x="50" y="333" type="curve" smooth="yes"/>
      <point x="50" y="269" type="line" smooth="yes"/>
      <point x="50" y="232"/>
      <point x="78" y="202"/>
      <point x="116" y="202" type="curve"/>
      <point x="115" y="202" type="line"/>
      <point x="185" y="202" type="line"/>
      <point x="185" y="202" type="line"/>
      <point x="222" y="202"/>
      <point x="250" y="232"/>
      <point x="250" y="269" type="curve" smooth="yes"/>
      <point x="250" y="333" type="line" smooth="yes"/>
      <point x="250" y="370"/>
      <point x="222" y="400"/>
      <point x="185" y="400" type="curve" smooth="yes"/>
    </contour>
  </outline>
</glyph>
<glyph name="Euro" format="1">
  <advance width="434"/>
  <unicode hex="20AC"/>
  <outline>
    <contour>
      <point x="328" y="341" type="line" smooth="yes"/>
      <point x="328" y="343"/>
      <point x="327" y="345"/>
      <point x="325" y="345" type="curve" smooth="yes"/>
      <point x="190" y="345" type="line"/>
      <point x="190" y="395" type="line"/>
      <point x="325" y="395" type="line"/>
      <point x="327" y="396"/>
      <point x="328" y="397"/>
      <point x="328" y="399" type="curve" smooth="yes"/>
      <point x="328" y="449" type="line" smooth="yes"/>
      <point x="328" y="451"/>
      <point x="327" y="453"/>
      <point x="325" y="453" type="curve" smooth="yes"/>
      <point x="190" y="453" type="line"/>
      <point x="190" y="610" type="line" smooth="yes"/>
      <point x="190" y="612"/>
      <point x="191" y="614"/>
      <point x="193" y="614" type="curve" smooth="yes"/>
      <point x="285" y="614" type="line" smooth="yes"/>
      <point x="287" y="614"/>
      <point x="288" y="612"/>
      <point x="288" y="610" type="curve" smooth="yes"/>
      <point x="288" y="549" type="line" smooth="yes"/>
      <point x="288" y="547"/>
      <point x="290" y="546"/>
      <point x="291" y="546" type="curve"/>
      <point x="388" y="546" type="line" smooth="yes"/>
      <point x="390" y="546"/>
      <point x="392" y="547"/>
      <point x="392" y="549" type="curve" smooth="yes"/>
      <point x="392" y="610" type="line" smooth="yes"/>
      <point x="392" y="662"/>
      <point x="353" y="704"/>
      <point x="301" y="704" type="curve" smooth="yes"/>
      <point x="173" y="704" type="line"/>
      <point x="121" y="703"/>
      <point x="80" y="661"/>
      <point x="80" y="610" type="curve" smooth="yes"/>
      <point x="80" y="453" type="line"/>
      <point x="33" y="453" type="line" smooth="yes"/>
      <point x="31" y="453"/>
      <point x="29" y="451"/>
      <point x="29" y="449" type="curve" smooth="yes"/>
      <point x="29" y="399" type="line" smooth="yes"/>
      <point x="29" y="397"/>
      <point x="31" y="396"/>
      <point x="33" y="395" type="curve"/>
      <point x="80" y="395" type="line"/>
      <point x="80" y="345" type="line"/>
      <point x="33" y="345" type="line" smooth="yes"/>
      <point x="31" y="345"/>
      <point x="29" y="343"/>
      <point x="29" y="341" type="curve" smooth="yes"/>
      <point x="29" y="291" type="line" smooth="yes"/>
      <point x="29" y="289"/>
      <point x="31" y="288"/>
      <point x="33" y="287" type="curve"/>
      <point x="80" y="287" type="line"/>
      <point x="80" y="94" type="line" smooth="yes"/>
      <point x="80" y="42"/>
      <point x="122" y="0"/>
      <point x="174" y="0" type="curve" smooth="yes"/>
      <point x="301" y="0" type="line" smooth="yes"/>
      <point x="353" y="0"/>
      <point x="392" y="42"/>
      <point x="392" y="94" type="curve" smooth="yes"/>
      <point x="392" y="196" type="line" smooth="yes"/>
      <point x="392" y="198"/>
      <point x="390" y="200"/>
      <point x="389" y="200" type="curve"/>
      <point x="292" y="200" type="line" smooth="yes"/>
      <point x="290" y="200"/>
      <point x="288" y="198"/>
      <point x="288" y="196" type="curve" smooth="yes"/>
      <point x="288" y="93" type="line"/>
      <point x="288" y="92"/>
      <point x="287" y="90"/>
      <point x="285" y="90" type="curve" smooth="yes"/>
      <point x="193" y="90" type="line" smooth="yes"/>
      <point x="191" y="90"/>
      <point x="190" y="92"/>
      <point x="190" y="93" type="curve"/>
      <point x="190" y="287" type="line"/>
      <point x="325" y="287" type="line"/>
      <point x="327" y="288"/>
      <point x="328" y="289"/>
      <point x="328" y="291" type="curve" smooth="yes"/>
    </contour>
  </outline>
</glyph>
